  0
SECTION
  2
HEADER
  9
$ACADVER
  1
AC1024
  9
$ACADMAINTVER
 70
     6
  9
$DWGCODEPAGE
  3
ANSI_1252
  9
$INSBASE
 10
0.0
 20
0.0
 30
0.0
  9
$EXTMIN
 10
1.000000000000000E+20
 20
1.000000000000000E+20
 30
1.000000000000000E+20
  9
$EXTMAX
 10
-1.000000000000000E+20
 20
-1.000000000000000E+20
 30
-1.000000000000000E+20
  9
$LIMMIN
 10
0.0
 20
0.0
  9
$LIMMAX
 10
12.0
 20
9.0
  9
$ORTHOMODE
 70
     0
  9
$REGENMODE
 70
     1
  9
$FILLMODE
 70
     1
  9
$QTEXTMODE
 70
     0
  9
$MIRRTEXT
 70
     1
  9
$LTSCALE
 40
1.0
  9
$ATTMODE
 70
     1
  9
$TEXTSIZE
 40
0.2
  9
$TRACEWID
 40
0.05
  9
$TEXTSTYLE
  7
Standard
  9
$CLAYER
  8
0
  9
$CELTYPE
  6
ByLayer
  9
$CECOLOR
 62
   256
  9
$CELTSCALE
 40
1.0
  9
$DISPSILH
 70
     0
  9
$DIMSCALE
 40
1.0
  9
$DIMASZ
 40
0.18
  9
$DIMEXO
 40
0.0625
  9
$DIMDLI
 40
0.38
  9
$DIMRND
 40
0.0
  9
$DIMDLE
 40
0.0
  9
$DIMEXE
 40
0.18
  9
$DIMTP
 40
0.0
  9
$DIMTM
 40
0.0
  9
$DIMTXT
 40
0.18
  9
$DIMCEN
 40
0.09
  9
$DIMTSZ
 40
0.0
  9
$DIMTOL
 70
     0
  9
$DIMLIM
 70
     0
  9
$DIMTIH
 70
     1
  9
$DIMTOH
 70
     1
  9
$DIMSE1
 70
     0
  9
$DIMSE2
 70
     0
  9
$DIMTAD
 70
     0
  9
$DIMZIN
 70
     0
  9
$DIMBLK
  1

  9
$DIMASO
 70
     1
  9
$DIMSHO
 70
     1
  9
$DIMPOST
  1

  9
$DIMAPOST
  1

  9
$DIMALT
 70
     0
  9
$DIMALTD
 70
     2
  9
$DIMALTF
 40
25.4
  9
$DIMLFAC
 40
1.0
  9
$DIMTOFL
 70
     0
  9
$DIMTVP
 40
0.0
  9
$DIMTIX
 70
     0
  9
$DIMSOXD
 70
     0
  9
$DIMSAH
 70
     0
  9
$DIMBLK1
  1

  9
$DIMBLK2
  1

  9
$DIMSTYLE
  2
Standard
  9
$DIMCLRD
 70
     0
  9
$DIMCLRE
 70
     0
  9
$DIMCLRT
 70
     0
  9
$DIMTFAC
 40
1.0
  9
$DIMGAP
 40
0.09
  9
$DIMJUST
 70
     0
  9
$DIMSD1
 70
     0
  9
$DIMSD2
 70
     0
  9
$DIMTOLJ
 70
     1
  9
$DIMTZIN
 70
     0
  9
$DIMALTZ
 70
     0
  9
$DIMALTTZ
 70
     0
  9
$DIMUPT
 70
     0
  9
$DIMDEC
 70
     4
  9
$DIMTDEC
 70
     4
  9
$DIMALTU
 70
     2
  9
$DIMALTTD
 70
     2
  9
$DIMTXSTY
  7
Standard
  9
$DIMAUNIT
 70
     0
  9
$DIMADEC
 70
     0
  9
$DIMALTRND
 40
0.0
  9
$DIMAZIN
 70
     0
  9
$DIMDSEP
 70
    46
  9
$DIMATFIT
 70
     3
  9
$DIMFRAC
 70
     0
  9
$DIMLDRBLK
  1

  9
$DIMLUNIT
 70
     2
  9
$DIMLWD
 70
    -2
  9
$DIMLWE
 70
    -2
  9
$DIMTMOVE
 70
     0
  9
$DIMFXL
 40
1.0
  9
$DIMFXLON
 70
     0
  9
$DIMJOGANG
 40
0.7853981633974483
  9
$DIMTFILL
 70
     0
  9
$DIMTFILLCLR
 70
     0
  9
$DIMARCSYM
 70
     0
  9
$DIMLTYPE
  6

  9
$DIMLTEX1
  6

  9
$DIMLTEX2
  6

  9
$DIMTXTDIRECTION
 70
     0
  9
$LUNITS
 70
     2
  9
$LUPREC
 70
     4
  9
$SKETCHINC
 40
0.1
  9
$FILLETRAD
 40
0.5
  9
$AUNITS
 70
     0
  9
$AUPREC
 70
     0
  9
$MENU
  1
.
  9
$ELEVATION
 40
0.0
  9
$PELEVATION
 40
0.0
  9
$THICKNESS
 40
0.0
  9
$LIMCHECK
 70
     0
  9
$CHAMFERA
 40
0.5
  9
$CHAMFERB
 40
0.5
  9
$CHAMFERC
 40
1.0
  9
$CHAMFERD
 40
0.0
  9
$SKPOLY
 70
     0
  9
$TDCREATE
 40
2458436.787708403
  9
$TDUCREATE
 40
2458436.45437507
  9
$TDUPDATE
 40
2458436.78770919
  9
$TDUUPDATE
 40
2458436.454375857
  9
$TDINDWG
 40
0.0000000116
  9
$TDUSRTIMER
 40
0.0000000116
  9
$USRTIMER
 70
     1
  9
$ANGBASE
 50
0.0
  9
$ANGDIR
 70
     0
  9
$PDMODE
 70
     0
  9
$PDSIZE
 40
0.0
  9
$PLINEWID
 40
0.0
  9
$SPLFRAME
 70
     0
  9
$SPLINETYPE
 70
     6
  9
$SPLINESEGS
 70
     8
  9
$HANDSEED
  5
1A2
  9
$SURFTAB1
 70
     6
  9
$SURFTAB2
 70
     6
  9
$SURFTYPE
 70
     6
  9
$SURFU
 70
     6
  9
$SURFV
 70
     6
  9
$UCSBASE
  2

  9
$UCSNAME
  2

  9
$UCSORG
 10
0.0
 20
0.0
 30
0.0
  9
$UCSXDIR
 10
1.0
 20
0.0
 30
0.0
  9
$UCSYDIR
 10
0.0
 20
1.0
 30
0.0
  9
$UCSORTHOREF
  2

  9
$UCSORTHOVIEW
 70
     0
  9
$UCSORGTOP
 10
0.0
 20
0.0
 30
0.0
  9
$UCSORGBOTTOM
 10
0.0
 20
0.0
 30
0.0
  9
$UCSORGLEFT
 10
0.0
 20
0.0
 30
0.0
  9
$UCSORGRIGHT
 10
0.0
 20
0.0
 30
0.0
  9
$UCSORGFRONT
 10
0.0
 20
0.0
 30
0.0
  9
$UCSORGBACK
 10
0.0
 20
0.0
 30
0.0
  9
$PUCSBASE
  2

  9
$PUCSNAME
  2

  9
$PUCSORG
 10
0.0
 20
0.0
 30
0.0
  9
$PUCSXDIR
 10
1.0
 20
0.0
 30
0.0
  9
$PUCSYDIR
 10
0.0
 20
1.0
 30
0.0
  9
$PUCSORTHOREF
  2

  9
$PUCSORTHOVIEW
 70
     0
  9
$PUCSORGTOP
 10
0.0
 20
0.0
 30
0.0
  9
$PUCSORGBOTTOM
 10
0.0
 20
0.0
 30
0.0
  9
$PUCSORGLEFT
 10
0.0
 20
0.0
 30
0.0
  9
$PUCSORGRIGHT
 10
0.0
 20
0.0
 30
0.0
  9
$PUCSORGFRONT
 10
0.0
 20
0.0
 30
0.0
  9
$PUCSORGBACK
 10
0.0
 20
0.0
 30
0.0
  9
$USERI1
 70
     0
  9
$USERI2
 70
     0
  9
$USERI3
 70
     0
  9
$USERI4
 70
     0
  9
$USERI5
 70
     0
  9
$USERR1
 40
0.0
  9
$USERR2
 40
0.0
  9
$USERR3
 40
0.0
  9
$USERR4
 40
0.0
  9
$USERR5
 40
0.0
  9
$WORLDVIEW
 70
     1
  9
$SHADEDGE
 70
     3
  9
$SHADEDIF
 70
    70
  9
$TILEMODE
 70
     1
  9
$MAXACTVP
 70
    64
  9
$PINSBASE
 10
0.0
 20
0.0
 30
0.0
  9
$PLIMCHECK
 70
     0
  9
$PEXTMIN
 10
1.000000000000000E+20
 20
1.000000000000000E+20
 30
1.000000000000000E+20
  9
$PEXTMAX
 10
-1.000000000000000E+20
 20
-1.000000000000000E+20
 30
-1.000000000000000E+20
  9
$PLIMMIN
 10
0.0
 20
0.0
  9
$PLIMMAX
 10
12.0
 20
9.0
  9
$UNITMODE
 70
     0
  9
$VISRETAIN
 70
     1
  9
$PLINEGEN
 70
     0
  9
$PSLTSCALE
 70
     1
  9
$TREEDEPTH
 70
  3020
  9
$CMLSTYLE
  2
Standard
  9
$CMLJUST
 70
     0
  9
$CMLSCALE
 40
1.0
  9
$PROXYGRAPHICS
 70
     1
  9
$MEASUREMENT
 70
     0
  9
$CELWEIGHT
370
    -1
  9
$ENDCAPS
280
     0
  9
$JOINSTYLE
280
     0
  9
$LWDISPLAY
290
     1
  9
$INSUNITS
 70
     1
  9
$HYPERLINKBASE
  1

  9
$STYLESHEET
  1

  9
$XEDIT
290
     1
  9
$CEPSNTYPE
380
     0
  9
$PSTYLEMODE
290
     1
  9
$FINGERPRINTGUID
  2
{116D56CA-CEE1-4F59-9F73-D8E05BEA5B00}
  9
$VERSIONGUID
  2
{FAEB1C32-E019-11D5-929B-00C0DF256EC4}
  9
$EXTNAMES
290
     1
  9
$PSVPSCALE
 40
0.0
  9
$OLESTARTUP
290
     0
  9
$SORTENTS
280
   127
  9
$INDEXCTL
280
     0
  9
$HIDETEXT
280
     1
  9
$XCLIPFRAME
280
     2
  9
$HALOGAP
280
     0
  9
$OBSCOLOR
 70
   257
  9
$OBSLTYPE
280
     0
  9
$INTERSECTIONDISPLAY
280
     0
  9
$INTERSECTIONCOLOR
 70
   257
  9
$DIMASSOC
280
     2
  9
$PROJECTNAME
  1

  9
$CAMERADISPLAY
290
     0
  9
$LENSLENGTH
 40
50.0
  9
$CAMERAHEIGHT
 40
0.0
  9
$STEPSPERSEC
 40
2.0
  9
$STEPSIZE
 40
6.0
  9
$3DDWFPREC
 40
2.0
  9
$PSOLWIDTH
 40
0.25
  9
$PSOLHEIGHT
 40
4.0
  9
$LOFTANG1
 40
1.570796326794897
  9
$LOFTANG2
 40
1.570796326794897
  9
$LOFTMAG1
 40
0.0
  9
$LOFTMAG2
 40
0.0
  9
$LOFTPARAM
 70
     7
  9
$LOFTNORMALS
280
     1
  9
$LATITUDE
 40
37.795
  9
$LONGITUDE
 40
-122.394
  9
$NORTHDIRECTION
 40
0.0
  9
$TIMEZONE
 70
 -8000
  9
$LIGHTGLYPHDISPLAY
280
     1
  9
$TILEMODELIGHTSYNCH
280
     1
  9
$CMATERIAL
347
3C
  9
$SOLIDHIST
280
     1
  9
$SHOWHIST
280
     1
  9
$DWFFRAME
280
     2
  9
$DGNFRAME
280
     2
  9
$REALWORLDSCALE
290
     1
  9
$INTERFERECOLOR
 62
   256
  9
$CSHADOW
280
     0
  9
$SHADOWPLANELOCATION
 40
0.0
  0
ENDSEC
  0
SECTION
  2
CLASSES
  0
CLASS
  1
ACDBDICTIONARYWDFLT
  2
AcDbDictionaryWithDefault
  3
ObjectDBX Classes
 90
        0
 91
        4
280
     0
281
     0
  0
CLASS
  1
VISUALSTYLE
  2
AcDbVisualStyle
  3
ObjectDBX Classes
 90
     4095
 91
        4
280
     0
281
     0
  0
CLASS
  1
MATERIAL
  2
AcDbMaterial
  3
ObjectDBX Classes
 90
     1153
 91
        4
280
     0
281
     0
  0
CLASS
  1
SUN
  2
AcDbSun
  3
SCENEOE
 90
     1024
 91
        4
280
     0
281
     0
  0
ENDSEC
  0
SECTION
  2
TABLES
  0
TABLE
  2
VPORT
  5
8
330
0
100
AcDbSymbolTable
 70
     1
  0
VPORT
  5
29
330
8
100
AcDbSymbolTableRecord
100
AcDbViewportTableRecord
  2
*Active
 70
     0
 10
0.0
 20
0.0
 11
1.0
 21
1.0
 12
0.0
 22
0.0
 13
0.0
 23
0.0
 14
0.5
 24
0.5
 15
0.5
 25
0.5
 16
0.0
 26
0.0
 36
1.0
 17
104.9999999737534
 27
-148.4999999628701
 37
0.0
 40
296.9999999257402
 41
0.7070707070707533
 42
50.0
 43
0.0
 44
0.0
 50
0.0
 51
0.0
 71
     0
 72
   100
 73
     1
 74
     3
 75
     0
 76
     0
 77
     0
 78
     0
281
     0
 65
     1
110
0.0
120
0.0
130
0.0
111
1.0
121
0.0
131
0.0
112
0.0
122
1.0
132
0.0
 79
     0
146
0.0
 60
     3
 61
     5
292
     1
282
     1
141
0.0
142
0.0
 63
   250
361
3F
  0
ENDTAB
  0
TABLE
  2
LTYPE
  5
5
330
0
100
AcDbSymbolTable
 70
     1
  0
LTYPE
  5
14
330
5
100
AcDbSymbolTableRecord
100
AcDbLinetypeTableRecord
  2
ByBlock
 70
     0
  3

 72
    65
 73
     0
 40
0.0
  0
LTYPE
  5
15
330
5
100
AcDbSymbolTableRecord
100
AcDbLinetypeTableRecord
  2
ByLayer
 70
     0
  3

 72
    65
 73
     0
 40
0.0
  0
LTYPE
  5
16
330
5
100
AcDbSymbolTableRecord
100
AcDbLinetypeTableRecord
  2
Continuous
 70
     0
  3
Solid line
 72
    65
 73
     0
 40
0.0
  0
ENDTAB
  0
TABLE
  2
LAYER
  5
2
330
0
100
AcDbSymbolTable
 70
     4
  0
LAYER
  5
10
330
2
100
AcDbSymbolTableRecord
100
AcDbLayerTableRecord
  2
0
 70
     0
 62
     7
  6
Continuous
370
    -3
390
F
347
3E
  0
LAYER
  5
40
330
2
100
AcDbSymbolTableRecord
100
AcDbLayerTableRecord
  2
parts
 70
     0
 62
     7
  6
Continuous
370
    -3
390
F
347
3E
  0
LAYER
  5
72
330
2
100
AcDbSymbolTableRecord
100
AcDbLayerTableRecord
  2
assembly
 70
     0
 62
     7
  6
Continuous
370
    -3
390
F
347
3E
  0
LAYER
  5
10A
330
2
100
AcDbSymbolTableRecord
100
AcDbLayerTableRecord
  2
outer assembly
 70
     0
 62
     7
  6
Continuous
370
    -3
390
F
347
3E
  0
ENDTAB
  0
TABLE
  2
STYLE
  5
3
330
0
100
AcDbSymbolTable
 70
     1
  0
STYLE
  5
11
330
3
100
AcDbSymbolTableRecord
100
AcDbTextStyleTableRecord
  2
Standard
 70
     0
 40
0.0
 41
1.0
 50
0.0
 71
     0
 42
0.2
  3
txt
  4

  0
ENDTAB
  0
TABLE
  2
VIEW
  5
6
330
0
100
AcDbSymbolTable
 70
     0
  0
ENDTAB
  0
TABLE
  2
UCS
  5
7
330
0
100
AcDbSymbolTable
 70
     0
  0
ENDTAB
  0
TABLE
  2
APPID
  5
9
330
0
100
AcDbSymbolTable
 70
     1
  0
APPID
  5
12
330
9
100
AcDbSymbolTableRecord
100
AcDbRegAppTableRecord
  2
ACAD
 70
     0
  0
ENDTAB
  0
TABLE
  2
DIMSTYLE
  5
A
330
0
100
AcDbSymbolTable
 70
     1
100
AcDbDimStyleTable
  0
DIMSTYLE
105
27
330
A
100
AcDbSymbolTableRecord
100
AcDbDimStyleTableRecord
  2
Standard
 70
     0
178
     0
340
11
  0
ENDTAB
  0
TABLE
  2
BLOCK_RECORD
  5
1
330
0
100
AcDbSymbolTable
 70
    15
  0
BLOCK_RECORD
  5
1F
330
1
100
AcDbSymbolTableRecord
100
AcDbBlockTableRecord
  2
*Model_Space
340
22
 70
     0
280
     1
281
     0
  0
BLOCK_RECORD
  5
1B
330
1
100
AcDbSymbolTableRecord
100
AcDbBlockTableRecord
  2
*Paper_Space
340
1E
 70
     0
280
     1
281
     0
  0
BLOCK_RECORD
  5
23
330
1
100
AcDbSymbolTableRecord
100
AcDbBlockTableRecord
  2
*Paper_Space0
340
26
 70
     0
280
     1
281
     0
  0
BLOCK_RECORD
  5
41
330
1
100
AcDbSymbolTableRecord
100
AcDbBlockTableRecord
  2
block 2
340
0
102
{BLKREFS
331
42
102
}
 70
     0
280
     1
281
     0
  0
BLOCK_RECORD
  5
68
330
1
100
AcDbSymbolTableRecord
100
AcDbBlockTableRecord
  2
block 3
340
0
102
{BLKREFS
331
69
102
}
 70
     0
280
     1
281
     0
  0
BLOCK_RECORD
  5
73
330
1
100
AcDbSymbolTableRecord
100
AcDbBlockTableRecord
  2
block 4
340
0
102
{BLKREFS
331
74
102
}
 70
     0
280
     1
281
     0
  0
BLOCK_RECORD
  5
B8
330
1
100
AcDbSymbolTableRecord
100
AcDbBlockTableRecord
  2
block 5
340
0
102
{BLKREFS
331
B9
102
}
 70
     0
280
     1
281
     0
  0
BLOCK_RECORD
  5
C9
330
1
100
AcDbSymbolTableRecord
100
AcDbBlockTableRecord
  2
block 6
340
0
102
{BLKREFS
331
CA
102
}
 70
     0
280
     1
281
     0
  0
BLOCK_RECORD
  5
DB
330
1
100
AcDbSymbolTableRecord
100
AcDbBlockTableRecord
  2
block 7
340
0
102
{BLKREFS
331
DC
102
}
 70
     0
280
     1
281
     0
  0
BLOCK_RECORD
  5
E7
330
1
100
AcDbSymbolTableRecord
100
AcDbBlockTableRecord
  2
block 8
340
0
102
{BLKREFS
331
E8
102
}
 70
     0
280
     1
281
     0
  0
BLOCK_RECORD
  5
F8
330
1
100
AcDbSymbolTableRecord
100
AcDbBlockTableRecord
  2
block 9
340
0
102
{BLKREFS
331
F9
102
}
 70
     0
280
     1
281
     0
  0
BLOCK_RECORD
  5
10B
330
1
100
AcDbSymbolTableRecord
100
AcDbBlockTableRecord
  2
block 10
340
0
102
{BLKREFS
331
10C
102
}
 70
     0
280
     1
281
     0
  0
BLOCK_RECORD
  5
116
330
1
100
AcDbSymbolTableRecord
100
AcDbBlockTableRecord
  2
block 11
340
0
102
{BLKREFS
331
117
102
}
 70
     0
280
     1
281
     0
  0
BLOCK_RECORD
  5
11A
330
1
100
AcDbSymbolTableRecord
100
AcDbBlockTableRecord
  2
block 12
340
0
102
{BLKREFS
331
11B
102
}
 70
     0
280
     1
281
     0
  0
BLOCK_RECORD
  5
12C
330
1
100
AcDbSymbolTableRecord
100
AcDbBlockTableRecord
  2
block 13
340
0
102
{BLKREFS
331
12D
102
}
 70
     0
280
     1
281
     0
  0
BLOCK_RECORD
  5
154
330
1
100
AcDbSymbolTableRecord
100
AcDbBlockTableRecord
  2
block 14
340
0
102
{BLKREFS
331
155
102
}
 70
     0
280
     1
281
     0
  0
BLOCK_RECORD
  5
160
330
1
100
AcDbSymbolTableRecord
100
AcDbBlockTableRecord
  2
block 15
340
0
102
{BLKREFS
331
161
102
}
 70
     0
280
     1
281
     0
  0
ENDTAB
  0
ENDSEC
  0
SECTION
  2
BLOCKS
  0
BLOCK
  5
20
330
1F
100
AcDbEntity
  8
0
100
AcDbBlockBegin
  2
*Model_Space
 70
     0
 10
0.0
 20
0.0
 30
0.0
  3
*Model_Space
  1

  0
ENDBLK
  5
21
330
1F
100
AcDbEntity
  8
0
100
AcDbBlockEnd
  0
BLOCK
  5
1C
330
1B
100
AcDbEntity
 67
     1
  8
0
100
AcDbBlockBegin
  2
*Paper_Space
 70
     0
 10
0.0
 20
0.0
 30
0.0
  3
*Paper_Space
  1

  0
ENDBLK
  5
1D
330
1B
100
AcDbEntity
 67
     1
  8
0
100
AcDbBlockEnd
  0
BLOCK
  5
24
330
23
100
AcDbEntity
  8
0
100
AcDbBlockBegin
  2
*Paper_Space0
 70
     0
 10
0.0
 20
0.0
 30
0.0
  3
*Paper_Space0
  1

  0
ENDBLK
  5
25
330
23
100
AcDbEntity
  8
0
100
AcDbBlockEnd
  0
BLOCK
  5
43
330
41
100
AcDbEntity
  8
0
100
AcDbBlockBegin
  2
block 2
 70
     0
 10
0.0
 20
0.0
 30
0.0
  3
block 2
  1

  0
POLYLINE
  5
45
330
41
100
AcDbEntity
  8
parts
 62
   250
420
  2301728
370
    35
100
AcDb2dPolyline
 66
     1
 10
0.0
 20
0.0
 30
0.0
  0
VERTEX
  5
46
330
45
100
AcDbEntity
  8
parts
 62
   250
420
  2301728
370
    35
100
AcDbVertex
100
AcDb2dVertex
 10
74.86450321430587
 20
-169.4134964905297
 30
0.0
  0
VERTEX
  5
47
330
45
100
AcDbEntity
  8
parts
 62
   250
420
  2301728
370
    35
100
AcDbVertex
100
AcDb2dVertex
 10
71.86450321505592
 20
-169.4134964905297
 30
0.0
  0
VERTEX
  5
48
330
45
100
AcDbEntity
  8
parts
 62
   250
420
  2301728
370
    35
100
AcDbVertex
100
AcDb2dVertex
 10
71.86450321505592
 20
-165.4134964915299
 30
0.0
  0
VERTEX
  5
49
330
45
100
AcDbEntity
  8
parts
 62
   250
420
  2301728
370
    35
100
AcDbVertex
100
AcDb2dVertex
 10
74.86450321430587
 20
-165.4134964915299
 30
0.0
  0
VERTEX
  5
4A
330
45
100
AcDbEntity
  8
parts
 62
   250
420
  2301728
370
    35
100
AcDbVertex
100
AcDb2dVertex
 10
74.86450321430587
 20
-169.4134964905297
 30
0.0
  0
SEQEND
  5
4B
330
45
100
AcDbEntity
  8
parts
 62
   250
420
  2301728
370
    35
  0
POLYLINE
  5
4C
330
41
100
AcDbEntity
  8
parts
 62
   250
420
  2301728
370
    35
100
AcDb2dPolyline
 66
     1
 10
0.0
 20
0.0
 30
0.0
  0
VERTEX
  5
4D
330
4C
100
AcDbEntity
  8
parts
 62
   250
420
  2301728
370
    35
100
AcDbVertex
100
AcDb2dVertex
 10
68.86450321580595
 20
-168.9134964906551
 30
0.0
  0
VERTEX
  5
4E
330
4C
100
AcDbEntity
  8
parts
 62
   250
420
  2301728
370
    35
100
AcDbVertex
100
AcDb2dVertex
 10
59.86450321805575
 20
-168.9134964906551
 30
0.0
  0
VERTEX
  5
4F
330
4C
100
AcDbEntity
  8
parts
 62
   250
420
  2301728
370
    35
100
AcDbVertex
100
AcDb2dVertex
 10
59.86450321805575
 20
-165.9134964914051
 30
0.0
  0
VERTEX
  5
50
330
4C
100
AcDbEntity
  8
parts
 62
   250
420
  2301728
370
    35
100
AcDbVertex
100
AcDb2dVertex
 10
68.86450321580595
 20
-165.9134964914051
 30
0.0
  0
VERTEX
  5
51
330
4C
100
AcDbEntity
  8
parts
 62
   250
420
  2301728
370
    35
100
AcDbVertex
100
AcDb2dVertex
 10
68.86450321580595
 20
-168.9134964906551
 30
0.0
  0
SEQEND
  5
52
330
4C
100
AcDbEntity
  8
parts
 62
   250
420
  2301728
370
    35
  0
POLYLINE
  5
53
330
41
100
AcDbEntity
  8
parts
 62
   250
420
  2301728
370
    35
100
AcDb2dPolyline
 66
     1
 10
0.0
 20
0.0
 30
0.0
  0
VERTEX
  5
54
330
53
100
AcDbEntity
  8
parts
 62
   250
420
  2301728
370
    35
100
AcDbVertex
100
AcDb2dVertex
 10
71.86450321505592
 20
-169.9134964904049
 30
0.0
  0
VERTEX
  5
55
330
53
100
AcDbEntity
  8
parts
 62
   250
420
  2301728
370
    35
100
AcDbVertex
100
AcDb2dVertex
 10
68.86450321580595
 20
-169.9134964904049
 30
0.0
  0
VERTEX
  5
56
330
53
100
AcDbEntity
  8
parts
 62
   250
420
  2301728
370
    35
100
AcDbVertex
100
AcDb2dVertex
 10
68.86450321580595
 20
-164.9134964916547
 30
0.0
  0
VERTEX
  5
57
330
53
100
AcDbEntity
  8
parts
 62
   250
420
  2301728
370
    35
100
AcDbVertex
100
AcDb2dVertex
 10
71.86450321505592
 20
-164.9134964916547
 30
0.0
  0
VERTEX
  5
58
330
53
100
AcDbEntity
  8
parts
 62
   250
420
  2301728
370
    35
100
AcDbVertex
100
AcDb2dVertex
 10
71.86450321505592
 20
-169.9134964904049
 30
0.0
  0
SEQEND
  5
59
330
53
100
AcDbEntity
  8
parts
 62
   250
420
  2301728
370
    35
  0
ENDBLK
  5
44
330
41
100
AcDbEntity
  8
0
100
AcDbBlockEnd
  0
BLOCK
  5
6A
330
68
100
AcDbEntity
  8
0
100
AcDbBlockBegin
  2
block 3
 70
     0
 10
0.0
 20
0.0
 30
0.0
  3
block 3
  1

  0
SPLINE
  5
6C
330
68
100
AcDbEntity
  8
parts
 62
   250
420
  2301728
370
    35
100
AcDbSpline
210
0.0
220
0.0
230
1.0
 70
    11
 71
     3
 72
    17
 73
    13
 74
     0
 42
0.0000000001
 43
0.0000000001
 12
1.0
 22
0.0
 32
0.0
 13
1.0
 23
0.0
 33
0.0
 40
0.0
 40
0.0
 40
0.0
 40
0.0
 40
1.0
 40
1.0
 40
1.0
 40
2.0
 40
2.0
 40
2.0
 40
3.0
 40
3.0
 40
3.0
 40
4.0
 40
4.0
 40
4.0
 40
4.0
 10
182.8138888431852
 20
-140.7129234403976
 30
0.0
 10
182.8138888431852
 20
-160.0428896785652
 30
0.0
 10
167.143855090103
 20
-175.7129234316473
 30
0.0
 10
147.8138888519354
 20
-175.7129234316473
 30
0.0
 10
128.4839226137678
 20
-175.7129234316473
 30
0.0
 10
112.8138888606857
 20
-160.0428896785652
 30
0.0
 10
112.8138888606857
 20
-140.7129234403976
 30
0.0
 10
112.8138888606857
 20
-121.3829572022303
 30
0.0
 10
128.4839226137678
 20
-105.7129234491479
 30
0.0
 10
147.8138888519354
 20
-105.7129234491479
 30
0.0
 10
167.143855090103
 20
-105.7129234491479
 30
0.0
 10
182.8138888431852
 20
-121.3829572022303
 30
0.0
 10
182.8138888431852
 20
-140.7129234403976
 30
0.0
  0
SPLINE
  5
6D
330
68
100
AcDbEntity
  8
parts
 62
   250
420
  2301728
370
    35
100
AcDbSpline
210
0.0
220
0.0
230
1.0
 70
    11
 71
     3
 72
    17
 73
    13
 74
     0
 42
0.0000000001
 43
0.0000000001
 12
1.0
 22
0.0
 32
0.0
 13
1.0
 23
0.0
 33
0.0
 40
0.0
 40
0.0
 40
0.0
 40
0.0
 40
1.0
 40
1.0
 40
1.0
 40
2.0
 40
2.0
 40
2.0
 40
3.0
 40
3.0
 40
3.0
 40
4.0
 40
4.0
 40
4.0
 40
4.0
 10
149.9638888513982
 20
-140.7129234403976
 30
0.0
 10
149.9638888513982
 20
-141.9003356521711
 30
0.0
 10
149.0013010637089
 20
-142.8629234398604
 30
0.0
 10
147.8138888519354
 20
-142.8629234398604
 30
0.0
 10
146.6264766401619
 20
-142.8629234398604
 30
0.0
 10
145.6638888524726
 20
-141.9003356521711
 30
0.0
 10
145.6638888524726
 20
-140.7129234403976
 30
0.0
 10
145.6638888524726
 20
-139.5255112286241
 30
0.0
 10
146.6264766401619
 20
-138.5629234409348
 30
0.0
 10
147.8138888519354
 20
-138.5629234409348
 30
0.0
 10
149.0013010637089
 20
-138.5629234409348
 30
0.0
 10
149.9638888513982
 20
-139.5255112286241
 30
0.0
 10
149.9638888513982
 20
-140.7129234403976
 30
0.0
  0
ENDBLK
  5
6B
330
68
100
AcDbEntity
  8
0
100
AcDbBlockEnd
  0
BLOCK
  5
75
330
73
100
AcDbEntity
  8
0
100
AcDbBlockBegin
  2
block 4
 70
     0
 10
0.0
 20
0.0
 30
0.0
  3
block 4
  1

  0
POLYLINE
  5
77
330
73
100
AcDbEntity
  8
assembly
 62
   250
420
  2301728
370
    35
100
AcDb2dPolyline
 66
     1
 10
0.0
 20
0.0
 30
0.0
  0
VERTEX
  5
78
330
77
100
AcDbEntity
  8
assembly
 62
   250
420
  2301728
370
    35
100
AcDbVertex
100
AcDb2dVertex
 10
98.93054958493015
 20
-69.20704345518038
 30
0.0
  0
VERTEX
  5
79
330
77
100
AcDbEntity
  8
assembly
 62
   250
420
  2301728
370
    35
100
AcDbVertex
100
AcDb2dVertex
 10
98.93054958493015
 20
-75.2070434536803
 30
0.0
  0
VERTEX
  5
7A
330
77
100
AcDbEntity
  8
assembly
 62
   250
420
  2301728
370
    35
100
AcDbVertex
100
AcDb2dVertex
 10
58.93054959492994
 20
-75.2070434536803
 30
0.0
  0
VERTEX
  5
7B
330
77
100
AcDbEntity
  8
assembly
 62
   250
420
  2301728
370
    35
100
AcDbVertex
100
AcDb2dVertex
 10
58.93054959492994
 20
-69.20704345518038
 30
0.0
  0
VERTEX
  5
7C
330
77
100
AcDbEntity
  8
assembly
 62
   250
420
  2301728
370
    35
100
AcDbVertex
100
AcDb2dVertex
 10
98.93054958493015
 20
-69.20704345518038
 30
0.0
  0
SEQEND
  5
7D
330
77
100
AcDbEntity
  8
assembly
 62
   250
420
  2301728
370
    35
  0
POLYLINE
  5
7E
330
73
100
AcDbEntity
  8
assembly
 62
   250
420
  2301728
370
    35
100
AcDb2dPolyline
 66
     1
 10
0.0
 20
0.0
 30
0.0
  0
VERTEX
  5
7F
330
7E
100
AcDbEntity
  8
assembly
 62
   250
420
  2301728
370
    35
100
AcDbVertex
100
AcDb2dVertex
 10
88.93054958742985
 20
-70.70704345480536
 30
0.0
  0
VERTEX
  5
80
330
7E
100
AcDbEntity
  8
assembly
 62
   250
420
  2301728
370
    35
100
AcDbVertex
100
AcDb2dVertex
 10
88.93054958742985
 20
-73.70704345405532
 30
0.0
  0
VERTEX
  5
81
330
7E
100
AcDbEntity
  8
assembly
 62
   250
420
  2301728
370
    35
100
AcDbVertex
100
AcDb2dVertex
 10
83.93054958868002
 20
-73.70704345405532
 30
0.0
  0
VERTEX
  5
82
330
7E
100
AcDbEntity
  8
assembly
 62
   250
420
  2301728
370
    35
100
AcDbVertex
100
AcDb2dVertex
 10
83.93054958868002
 20
-70.70704345480536
 30
0.0
  0
VERTEX
  5
83
330
7E
100
AcDbEntity
  8
assembly
 62
   250
420
  2301728
370
    35
100
AcDbVertex
100
AcDb2dVertex
 10
88.93054958742985
 20
-70.70704345480536
 30
0.0
  0
SEQEND
  5
84
330
7E
100
AcDbEntity
  8
assembly
 62
   250
420
  2301728
370
    35
  0
SPLINE
  5
85
330
73
100
AcDbEntity
  8
assembly
 62
   250
420
  2301728
370
    35
100
AcDbSpline
210
0.0
220
0.0
230
1.0
 70
    11
 71
     3
 72
    17
 73
    13
 74
     0
 42
0.0000000001
 43
0.0000000001
 12
1.0
 22
0.0
 32
0.0
 13
1.0
 23
0.0
 33
0.0
 40
0.0
 40
0.0
 40
0.0
 40
0.0
 40
1.0
 40
1.0
 40
1.0
 40
2.0
 40
2.0
 40
2.0
 40
3.0
 40
3.0
 40
3.0
 40
4.0
 40
4.0
 40
4.0
 40
4.0
 10
78.93054958992988
 20
-70.05704345496817
 30
0.0
 10
80.11796180170307
 20
-70.05704345496817
 30
0.0
 10
81.08054958939238
 20
-71.01963124265747
 30
0.0
 10
81.08054958939238
 20
-72.20704345443033
 30
0.0
 10
81.08054958939238
 20
-73.39445566620385
 30
0.0
 10
80.11796180170307
 20
-74.35704345389316
 30
0.0
 10
78.93054958992988
 20
-74.35704345389316
 30
0.0
 10
77.74313737815669
 20
-74.35704345389316
 30
0.0
 10
76.78054959046739
 20
-73.39445566620385
 30
0.0
 10
76.78054959046739
 20
-72.20704345443033
 30
0.0
 10
76.78054959046739
 20
-71.01963124265747
 30
0.0
 10
77.74313737815669
 20
-70.05704345496817
 30
0.0
 10
78.93054958992988
 20
-70.05704345496817
 30
0.0
  0
POLYLINE
  5
86
330
73
100
AcDbEntity
  8
assembly
 62
   250
420
  2301728
370
    35
100
AcDb2dPolyline
 66
     1
 10
0.0
 20
0.0
 30
0.0
  0
VERTEX
  5
87
330
86
100
AcDbEntity
  8
assembly
 62
   250
420
  2301728
370
    35
100
AcDbVertex
100
AcDb2dVertex
 10
73.93054959117974
 20
-70.70704345480536
 30
0.0
  0
VERTEX
  5
88
330
86
100
AcDbEntity
  8
assembly
 62
   250
420
  2301728
370
    35
100
AcDbVertex
100
AcDb2dVertex
 10
73.93054959117974
 20
-73.70704345405532
 30
0.0
  0
VERTEX
  5
89
330
86
100
AcDbEntity
  8
assembly
 62
   250
420
  2301728
370
    35
100
AcDbVertex
100
AcDb2dVertex
 10
68.93054959242959
 20
-73.70704345405532
 30
0.0
  0
VERTEX
  5
8A
330
86
100
AcDbEntity
  8
assembly
 62
   250
420
  2301728
370
    35
100
AcDbVertex
100
AcDb2dVertex
 10
68.93054959242959
 20
-70.70704345480536
 30
0.0
  0
VERTEX
  5
8B
330
86
100
AcDbEntity
  8
assembly
 62
   250
420
  2301728
370
    35
100
AcDbVertex
100
AcDb2dVertex
 10
73.93054959117974
 20
-70.70704345480536
 30
0.0
  0
SEQEND
  5
8C
330
86
100
AcDbEntity
  8
assembly
 62
   250
420
  2301728
370
    35
  0
SPLINE
  5
8D
330
73
100
AcDbEntity
  8
assembly
 62
   250
420
  2301728
370
    35
100
AcDbSpline
210
0.0
220
0.0
230
1.0
 70
    11
 71
     3
 72
    17
 73
    13
 74
     0
 42
0.0000000001
 43
0.0000000001
 12
1.0
 22
0.0
 32
0.0
 13
1.0
 23
0.0
 33
0.0
 40
0.0
 40
0.0
 40
0.0
 40
0.0
 40
1.0
 40
1.0
 40
1.0
 40
2.0
 40
2.0
 40
2.0
 40
3.0
 40
3.0
 40
3.0
 40
4.0
 40
4.0
 40
4.0
 40
4.0
 10
61.62699998459327
 20
-71.15704345469292
 30
0.0
 10
62.2068989717385
 20
-71.15704345469292
 30
0.0
 10
62.67699998433069
 20
-71.62714446728543
 30
0.0
 10
62.67699998433069
 20
-72.20704345443066
 30
0.0
 10
62.67699998433069
 20
-72.78694244157558
 30
0.0
 10
62.2068989717385
 20
-73.25704345416808
 30
0.0
 10
61.62699998459327
 20
-73.25704345416808
 30
0.0
 10
61.04710099744836
 20
-73.25704345416808
 30
0.0
 10
60.57699998485585
 20
-72.78694244157558
 30
0.0
 10
60.57699998485585
 20
-72.20704345443066
 30
0.0
 10
60.57699998485585
 20
-71.62714446728543
 30
0.0
 10
61.04710099744836
 20
-71.15704345469292
 30
0.0
 10
61.62699998459327
 20
-71.15704345469292
 30
0.0
  0
SPLINE
  5
8E
330
73
100
AcDbEntity
  8
assembly
 62
   250
420
  2301728
370
    35
100
AcDbSpline
210
0.0
220
0.0
230
1.0
 70
    11
 71
     3
 72
    17
 73
    13
 74
     0
 42
0.0000000001
 43
0.0000000001
 12
1.0
 22
0.0
 32
0.0
 13
1.0
 23
0.0
 33
0.0
 40
0.0
 40
0.0
 40
0.0
 40
0.0
 40
1.0
 40
1.0
 40
1.0
 40
2.0
 40
2.0
 40
2.0
 40
3.0
 40
3.0
 40
3.0
 40
4.0
 40
4.0
 40
4.0
 40
4.0
 10
96.31499997592113
 20
-71.15704345469292
 30
0.0
 10
96.89489896306668
 20
-71.15704345469292
 30
0.0
 10
97.36499997565855
 20
-71.62714446728543
 30
0.0
 10
97.36499997565855
 20
-72.20704345443066
 30
0.0
 10
97.36499997565855
 20
-72.78694244157558
 30
0.0
 10
96.89489896306668
 20
-73.25704345416808
 30
0.0
 10
96.31499997592113
 20
-73.25704345416808
 30
0.0
 10
95.73510098877621
 20
-73.25704345416808
 30
0.0
 10
95.2649999761837
 20
-72.78694244157558
 30
0.0
 10
95.2649999761837
 20
-72.20704345443066
 30
0.0
 10
95.2649999761837
 20
-71.62714446728543
 30
0.0
 10
95.73510098877621
 20
-71.15704345469292
 30
0.0
 10
96.31499997592113
 20
-71.15704345469292
 30
0.0
  0
POLYLINE
  5
8F
330
73
100
AcDbEntity
  8
assembly
 62
   250
420
  2301728
370
    35
100
AcDb2dPolyline
 66
     1
 10
0.0
 20
0.0
 30
0.0
  0
VERTEX
  5
90
330
8F
100
AcDbEntity
  8
assembly
 62
   250
420
  2301728
370
    35
100
AcDbVertex
100
AcDb2dVertex
 10
98.93054958493015
 20
-77.63914864856883
 30
0.0
  0
VERTEX
  5
91
330
8F
100
AcDbEntity
  8
assembly
 62
   250
420
  2301728
370
    35
100
AcDbVertex
100
AcDb2dVertex
 10
98.93054958493015
 20
-83.63914864706875
 30
0.0
  0
VERTEX
  5
92
330
8F
100
AcDbEntity
  8
assembly
 62
   250
420
  2301728
370
    35
100
AcDbVertex
100
AcDb2dVertex
 10
58.93054959492994
 20
-83.63914864706875
 30
0.0
  0
VERTEX
  5
93
330
8F
100
AcDbEntity
  8
assembly
 62
   250
420
  2301728
370
    35
100
AcDbVertex
100
AcDb2dVertex
 10
58.93054959492994
 20
-77.63914864856883
 30
0.0
  0
VERTEX
  5
94
330
8F
100
AcDbEntity
  8
assembly
 62
   250
420
  2301728
370
    35
100
AcDbVertex
100
AcDb2dVertex
 10
98.93054958493015
 20
-77.63914864856883
 30
0.0
  0
SEQEND
  5
95
330
8F
100
AcDbEntity
  8
assembly
 62
   250
420
  2301728
370
    35
  0
POLYLINE
  5
96
330
73
100
AcDbEntity
  8
assembly
 62
   250
420
  2301728
370
    35
100
AcDb2dPolyline
 66
     1
 10
0.0
 20
0.0
 30
0.0
  0
VERTEX
  5
97
330
96
100
AcDbEntity
  8
assembly
 62
   250
420
  2301728
370
    35
100
AcDbVertex
100
AcDb2dVertex
 10
88.93054958742985
 20
-79.13914864819381
 30
0.0
  0
VERTEX
  5
98
330
96
100
AcDbEntity
  8
assembly
 62
   250
420
  2301728
370
    35
100
AcDbVertex
100
AcDb2dVertex
 10
88.93054958742985
 20
-82.13914864744378
 30
0.0
  0
VERTEX
  5
99
330
96
100
AcDbEntity
  8
assembly
 62
   250
420
  2301728
370
    35
100
AcDbVertex
100
AcDb2dVertex
 10
83.93054958868002
 20
-82.13914864744378
 30
0.0
  0
VERTEX
  5
9A
330
96
100
AcDbEntity
  8
assembly
 62
   250
420
  2301728
370
    35
100
AcDbVertex
100
AcDb2dVertex
 10
83.93054958868002
 20
-79.13914864819381
 30
0.0
  0
VERTEX
  5
9B
330
96
100
AcDbEntity
  8
assembly
 62
   250
420
  2301728
370
    35
100
AcDbVertex
100
AcDb2dVertex
 10
88.93054958742985
 20
-79.13914864819381
 30
0.0
  0
SEQEND
  5
9C
330
96
100
AcDbEntity
  8
assembly
 62
   250
420
  2301728
370
    35
  0
SPLINE
  5
9D
330
73
100
AcDbEntity
  8
assembly
 62
   250
420
  2301728
370
    35
100
AcDbSpline
210
0.0
220
0.0
230
1.0
 70
    11
 71
     3
 72
    17
 73
    13
 74
     0
 42
0.0000000001
 43
0.0000000001
 12
1.0
 22
0.0
 32
0.0
 13
1.0
 23
0.0
 33
0.0
 40
0.0
 40
0.0
 40
0.0
 40
0.0
 40
1.0
 40
1.0
 40
1.0
 40
2.0
 40
2.0
 40
2.0
 40
3.0
 40
3.0
 40
3.0
 40
4.0
 40
4.0
 40
4.0
 40
4.0
 10
78.93054958992988
 20
-78.48914864835662
 30
0.0
 10
80.11796180170307
 20
-78.48914864835662
 30
0.0
 10
81.08054958939238
 20
-79.45173643604592
 30
0.0
 10
81.08054958939238
 20
-80.63914864781879
 30
0.0
 10
81.08054958939238
 20
-81.8265608595923
 30
0.0
 10
80.11796180170307
 20
-82.7891486472816
 30
0.0
 10
78.93054958992988
 20
-82.7891486472816
 30
0.0
 10
77.74313737815669
 20
-82.7891486472816
 30
0.0
 10
76.78054959046739
 20
-81.8265608595923
 30
0.0
 10
76.78054959046739
 20
-80.63914864781879
 30
0.0
 10
76.78054959046739
 20
-79.45173643604592
 30
0.0
 10
77.74313737815669
 20
-78.48914864835662
 30
0.0
 10
78.93054958992988
 20
-78.48914864835662
 30
0.0
  0
POLYLINE
  5
9E
330
73
100
AcDbEntity
  8
assembly
 62
   250
420
  2301728
370
    35
100
AcDb2dPolyline
 66
     1
 10
0.0
 20
0.0
 30
0.0
  0
VERTEX
  5
9F
330
9E
100
AcDbEntity
  8
assembly
 62
   250
420
  2301728
370
    35
100
AcDbVertex
100
AcDb2dVertex
 10
73.93054959117974
 20
-79.13914864819381
 30
0.0
  0
VERTEX
  5
A0
330
9E
100
AcDbEntity
  8
assembly
 62
   250
420
  2301728
370
    35
100
AcDbVertex
100
AcDb2dVertex
 10
73.93054959117974
 20
-82.13914864744378
 30
0.0
  0
VERTEX
  5
A1
330
9E
100
AcDbEntity
  8
assembly
 62
   250
420
  2301728
370
    35
100
AcDbVertex
100
AcDb2dVertex
 10
68.93054959242959
 20
-82.13914864744378
 30
0.0
  0
VERTEX
  5
A2
330
9E
100
AcDbEntity
  8
assembly
 62
   250
420
  2301728
370
    35
100
AcDbVertex
100
AcDb2dVertex
 10
68.93054959242959
 20
-79.13914864819381
 30
0.0
  0
VERTEX
  5
A3
330
9E
100
AcDbEntity
  8
assembly
 62
   250
420
  2301728
370
    35
100
AcDbVertex
100
AcDb2dVertex
 10
73.93054959117974
 20
-79.13914864819381
 30
0.0
  0
SEQEND
  5
A4
330
9E
100
AcDbEntity
  8
assembly
 62
   250
420
  2301728
370
    35
  0
SPLINE
  5
A5
330
73
100
AcDbEntity
  8
assembly
 62
   250
420
  2301728
370
    35
100
AcDbSpline
210
0.0
220
0.0
230
1.0
 70
    11
 71
     3
 72
    17
 73
    13
 74
     0
 42
0.0000000001
 43
0.0000000001
 12
1.0
 22
0.0
 32
0.0
 13
1.0
 23
0.0
 33
0.0
 40
0.0
 40
0.0
 40
0.0
 40
0.0
 40
1.0
 40
1.0
 40
1.0
 40
2.0
 40
2.0
 40
2.0
 40
3.0
 40
3.0
 40
3.0
 40
4.0
 40
4.0
 40
4.0
 40
4.0
 10
61.62699998459327
 20
-79.58914864808138
 30
0.0
 10
62.2068989717385
 20
-79.58914864808138
 30
0.0
 10
62.67699998433069
 20
-80.05924966067388
 30
0.0
 10
62.67699998433069
 20
-80.63914864781911
 30
0.0
 10
62.67699998433069
 20
-81.21904763496434
 30
0.0
 10
62.2068989717385
 20
-81.68914864755621
 30
0.0
 10
61.62699998459327
 20
-81.68914864755621
 30
0.0
 10
61.04710099744836
 20
-81.68914864755621
 30
0.0
 10
60.57699998485585
 20
-81.21904763496434
 30
0.0
 10
60.57699998485585
 20
-80.63914864781911
 30
0.0
 10
60.57699998485585
 20
-80.05924966067388
 30
0.0
 10
61.04710099744836
 20
-79.58914864808138
 30
0.0
 10
61.62699998459327
 20
-79.58914864808138
 30
0.0
  0
SPLINE
  5
A6
330
73
100
AcDbEntity
  8
assembly
 62
   250
420
  2301728
370
    35
100
AcDbSpline
210
0.0
220
0.0
230
1.0
 70
    11
 71
     3
 72
    17
 73
    13
 74
     0
 42
0.0000000001
 43
0.0000000001
 12
1.0
 22
0.0
 32
0.0
 13
1.0
 23
0.0
 33
0.0
 40
0.0
 40
0.0
 40
0.0
 40
0.0
 40
1.0
 40
1.0
 40
1.0
 40
2.0
 40
2.0
 40
2.0
 40
3.0
 40
3.0
 40
3.0
 40
4.0
 40
4.0
 40
4.0
 40
4.0
 10
96.31499997592113
 20
-79.58914864808138
 30
0.0
 10
96.89489896306668
 20
-79.58914864808138
 30
0.0
 10
97.36499997565855
 20
-80.05924966067388
 30
0.0
 10
97.36499997565855
 20
-80.63914864781911
 30
0.0
 10
97.36499997565855
 20
-81.21904763496434
 30
0.0
 10
96.89489896306668
 20
-81.68914864755621
 30
0.0
 10
96.31499997592113
 20
-81.68914864755621
 30
0.0
 10
95.73510098877621
 20
-81.68914864755621
 30
0.0
 10
95.2649999761837
 20
-81.21904763496434
 30
0.0
 10
95.2649999761837
 20
-80.63914864781911
 30
0.0
 10
95.2649999761837
 20
-80.05924966067388
 30
0.0
 10
95.73510098877621
 20
-79.58914864808138
 30
0.0
 10
96.31499997592113
 20
-79.58914864808138
 30
0.0
  0
ENDBLK
  5
76
330
73
100
AcDbEntity
  8
0
100
AcDbBlockEnd
  0
BLOCK
  5
BA
330
B8
100
AcDbEntity
  8
0
100
AcDbBlockBegin
  2
block 5
 70
     0
 10
0.0
 20
0.0
 30
0.0
  3
block 5
  1

  0
POLYLINE
  5
BC
330
B8
100
AcDbEntity
  8
assembly
 62
   250
420
  2301728
370
    35
100
AcDb2dPolyline
 66
     1
 10
0.0
 20
0.0
 30
0.0
  0
VERTEX
  5
BD
330
BC
100
AcDbEntity
  8
assembly
 62
   250
420
  2301728
370
    35
100
AcDbVertex
100
AcDb2dVertex
 10
36.05085816414498
 20
-82.50266321781174
 30
0.0
  0
VERTEX
  5
BE
330
BC
100
AcDbEntity
  8
assembly
 62
   250
420
  2301728
370
    35
100
AcDbVertex
100
AcDb2dVertex
 10
36.05085816414498
 20
-84.50267033807998
 30
0.0
  0
VERTEX
  5
BF
330
BC
100
AcDbEntity
  8
assembly
 62
   250
420
  2301728
370
    35
100
AcDbVertex
100
AcDb2dVertex
 10
35.05085460401087
 20
-84.50267033807998
 30
0.0
  0
VERTEX
  5
C0
330
BC
100
AcDbEntity
  8
assembly
 62
   250
420
  2301728
370
    35
100
AcDbVertex
100
AcDb2dVertex
 10
35.05085460401087
 20
-105.156242852943
 30
0.0
  0
VERTEX
  5
C1
330
BC
100
AcDbEntity
  8
assembly
 62
   250
420
  2301728
370
    35
100
AcDbVertex
100
AcDb2dVertex
 10
36.05085816414498
 20
-105.156242852943
 30
0.0
  0
VERTEX
  5
C2
330
BC
100
AcDbEntity
  8
assembly
 62
   250
420
  2301728
370
    35
100
AcDbVertex
100
AcDb2dVertex
 10
36.05085816414498
 20
-107.1562499732109
 30
0.0
  0
VERTEX
  5
C3
330
BC
100
AcDbEntity
  8
assembly
 62
   250
420
  2301728
370
    35
100
AcDbVertex
100
AcDb2dVertex
 10
41.05085443296876
 20
-107.1562499732109
 30
0.0
  0
VERTEX
  5
C4
330
BC
100
AcDbEntity
  8
assembly
 62
   250
420
  2301728
370
    35
100
AcDbVertex
100
AcDb2dVertex
 10
41.05085443296876
 20
-105.156242852943
 30
0.0
  0
VERTEX
  5
C5
330
BC
100
AcDbEntity
  8
assembly
 62
   250
420
  2301728
370
    35
100
AcDbVertex
100
AcDb2dVertex
 10
41.05085443296876
 20
-84.50267033807998
 30
0.0
  0
VERTEX
  5
C6
330
BC
100
AcDbEntity
  8
assembly
 62
   250
420
  2301728
370
    35
100
AcDbVertex
100
AcDb2dVertex
 10
41.05085443296876
 20
-82.50266321781174
 30
0.0
  0
VERTEX
  5
C7
330
BC
100
AcDbEntity
  8
assembly
 62
   250
420
  2301728
370
    35
100
AcDbVertex
100
AcDb2dVertex
 10
36.05085816414498
 20
-82.50266321781174
 30
0.0
  0
SEQEND
  5
C8
330
BC
100
AcDbEntity
  8
assembly
 62
   250
420
  2301728
370
    35
  0
INSERT
  5
CA
330
B8
100
AcDbEntity
  8
assembly
100
AcDbBlockReference
  2
block 6
 10
0.0
 20
0.0
 30
0.0
  0
ENDBLK
  5
BB
330
B8
100
AcDbEntity
  8
0
100
AcDbBlockEnd
  0
BLOCK
  5
CB
330
C9
100
AcDbEntity
  8
0
100
AcDbBlockBegin
  2
block 6
 70
     0
 10
0.0
 20
0.0
 30
0.0
  3
block 6
  1

  0
POLYLINE
  5
CD
330
C9
100
AcDbEntity
  8
assembly
 62
   250
420
  2301728
370
    35
100
AcDb2dPolyline
 66
     1
 10
0.0
 20
0.0
 30
0.0
  0
VERTEX
  5
CE
330
CD
100
AcDbEntity
  8
assembly
 62
   250
420
  2301728
370
    35
100
AcDbVertex
100
AcDb2dVertex
 10
36.55085451907242
 20
-91.54421354071005
 30
0.0
  0
VERTEX
  5
CF
330
CD
100
AcDbEntity
  8
assembly
 62
   250
420
  2301728
370
    35
100
AcDbVertex
100
AcDb2dVertex
 10
39.55085451832206
 20
-91.5442135408448
 30
0.0
  0
VERTEX
  5
D0
330
CD
100
AcDbEntity
  8
assembly
 62
   250
420
  2301728
370
    35
100
AcDbVertex
100
AcDb2dVertex
 10
39.55085451846484
 20
-88.36921354163854
 30
0.0
  0
VERTEX
  5
D1
330
CD
100
AcDbEntity
  8
assembly
 62
   250
420
  2301728
370
    35
100
AcDbVertex
100
AcDb2dVertex
 10
36.55085451921488
 20
-88.3692135415038
 30
0.0
  0
VERTEX
  5
D2
330
CD
100
AcDbEntity
  8
assembly
 62
   250
420
  2301728
370
    35
100
AcDbVertex
100
AcDb2dVertex
 10
36.55085451907242
 20
-91.54421354071005
 30
0.0
  0
SEQEND
  5
D3
330
CD
100
AcDbEntity
  8
assembly
 62
   250
420
  2301728
370
    35
  0
POLYLINE
  5
D4
330
C9
100
AcDbEntity
  8
assembly
 62
   250
420
  2301728
370
    35
100
AcDb2dPolyline
 66
     1
 10
0.0
 20
0.0
 30
0.0
  0
VERTEX
  5
D5
330
D4
100
AcDbEntity
  8
assembly
 62
   250
420
  2301728
370
    35
100
AcDbVertex
100
AcDb2dVertex
 10
36.55085451863479
 20
-101.2896996493848
 30
0.0
  0
VERTEX
  5
D6
330
D4
100
AcDbEntity
  8
assembly
 62
   250
420
  2301728
370
    35
100
AcDbVertex
100
AcDb2dVertex
 10
39.55085451788474
 20
-101.2896996495195
 30
0.0
  0
VERTEX
  5
D7
330
D4
100
AcDbEntity
  8
assembly
 62
   250
420
  2301728
370
    35
100
AcDbVertex
100
AcDb2dVertex
 10
39.5508545180272
 20
-98.11469965031328
 30
0.0
  0
VERTEX
  5
D8
330
D4
100
AcDbEntity
  8
assembly
 62
   250
420
  2301728
370
    35
100
AcDbVertex
100
AcDb2dVertex
 10
36.55085451877724
 20
-98.11469965017854
 30
0.0
  0
VERTEX
  5
D9
330
D4
100
AcDbEntity
  8
assembly
 62
   250
420
  2301728
370
    35
100
AcDbVertex
100
AcDb2dVertex
 10
36.55085451863479
 20
-101.2896996493848
 30
0.0
  0
SEQEND
  5
DA
330
D4
100
AcDbEntity
  8
assembly
 62
   250
420
  2301728
370
    35
  0
ENDBLK
  5
CC
330
C9
100
AcDbEntity
  8
0
100
AcDbBlockEnd
  0
BLOCK
  5
DD
330
DB
100
AcDbEntity
  8
0
100
AcDbBlockBegin
  2
block 7
 70
     0
 10
0.0
 20
0.0
 30
0.0
  3
block 7
  1

  0
SPLINE
  5
DF
330
DB
100
AcDbEntity
  8
assembly
 62
   250
420
  2301728
370
    35
100
AcDbSpline
210
0.0
220
0.0
230
1.0
 70
    11
 71
     3
 72
    17
 73
    13
 74
     0
 42
0.0000000001
 43
0.0000000001
 12
1.0
 22
0.0
 32
0.0
 13
1.0
 23
0.0
 33
0.0
 40
0.0
 40
0.0
 40
0.0
 40
0.0
 40
1.0
 40
1.0
 40
1.0
 40
2.0
 40
2.0
 40
2.0
 40
3.0
 40
3.0
 40
3.0
 40
4.0
 40
4.0
 40
4.0
 40
4.0
 10
43.5938086017114
 20
-62.09637065323978
 30
0.0
 10
43.5938086017114
 20
-64.85779440154944
 30
0.0
 10
41.35523235127091
 20
-67.09637065198993
 30
0.0
 10
38.59380860296125
 20
-67.09637065198993
 30
0.0
 10
35.83238485465159
 20
-67.09637065198993
 30
0.0
 10
33.59380860421111
 20
-64.85779440154944
 30
0.0
 10
33.59380860421111
 20
-62.09637065323978
 30
0.0
 10
33.59380860421111
 20
-59.33494690493012
 30
0.0
 10
35.83238485465159
 20
-57.09637065448963
 30
0.0
 10
38.59380860296125
 20
-57.09637065448963
 30
0.0
 10
41.35523235127091
 20
-57.09637065448963
 30
0.0
 10
43.5938086017114
 20
-59.33494690493012
 30
0.0
 10
43.5938086017114
 20
-62.09637065323978
 30
0.0
  0
POLYLINE
  5
E0
330
DB
100
AcDbEntity
  8
assembly
 62
   250
420
  2301728
370
    35
100
AcDb2dPolyline
 66
     1
 10
0.0
 20
0.0
 30
0.0
  0
VERTEX
  5
E1
330
E0
100
AcDbEntity
  8
assembly
 62
   250
420
  2301728
370
    35
100
AcDbVertex
100
AcDb2dVertex
 10
39.5933456397483
 20
-63.59637065286476
 30
0.0
  0
VERTEX
  5
E2
330
E0
100
AcDbEntity
  8
assembly
 62
   250
420
  2301728
370
    35
100
AcDbVertex
100
AcDb2dVertex
 10
37.59427156617421
 20
-63.59637065286476
 30
0.0
  0
VERTEX
  5
E3
330
E0
100
AcDbEntity
  8
assembly
 62
   250
420
  2301728
370
    35
100
AcDbVertex
100
AcDb2dVertex
 10
37.59427156617421
 20
-60.5963706536148
 30
0.0
  0
VERTEX
  5
E4
330
E0
100
AcDbEntity
  8
assembly
 62
   250
420
  2301728
370
    35
100
AcDbVertex
100
AcDb2dVertex
 10
39.5933456397483
 20
-60.5963706536148
 30
0.0
  0
VERTEX
  5
E5
330
E0
100
AcDbEntity
  8
assembly
 62
   250
420
  2301728
370
    35
100
AcDbVertex
100
AcDb2dVertex
 10
39.5933456397483
 20
-63.59637065286476
 30
0.0
  0
SEQEND
  5
E6
330
E0
100
AcDbEntity
  8
assembly
 62
   250
420
  2301728
370
    35
  0
ENDBLK
  5
DE
330
DB
100
AcDbEntity
  8
0
100
AcDbBlockEnd
  0
BLOCK
  5
E9
330
E7
100
AcDbEntity
  8
0
100
AcDbBlockBegin
  2
block 8
 70
     0
 10
0.0
 20
0.0
 30
0.0
  3
block 8
  1

  0
POLYLINE
  5
EB
330
E7
100
AcDbEntity
  8
assembly
 62
   250
420
  2301728
370
    35
100
AcDb2dPolyline
 66
     1
 10
0.0
 20
0.0
 30
0.0
  0
VERTEX
  5
EC
330
EB
100
AcDbEntity
  8
assembly
 62
   250
420
  2301728
370
    35
100
AcDbVertex
100
AcDb2dVertex
 10
55.50460993107681
 20
-83.53245638287423
 30
0.0
  0
VERTEX
  5
ED
330
EB
100
AcDbEntity
  8
assembly
 62
   250
420
  2301728
370
    35
100
AcDbVertex
100
AcDb2dVertex
 10
55.5046099309873
 20
-85.53246350314245
 30
0.0
  0
VERTEX
  5
EE
330
EB
100
AcDbEntity
  8
assembly
 62
   250
420
  2301728
370
    35
100
AcDbVertex
100
AcDb2dVertex
 10
56.50461349112141
 20
-85.53246350318737
 30
0.0
  0
VERTEX
  5
EF
330
EB
100
AcDbEntity
  8
assembly
 62
   250
420
  2301728
370
    35
100
AcDbVertex
100
AcDb2dVertex
 10
56.50461349019415
 20
-106.1860360180501
 30
0.0
  0
VERTEX
  5
F0
330
EB
100
AcDbEntity
  8
assembly
 62
   250
420
  2301728
370
    35
100
AcDbVertex
100
AcDb2dVertex
 10
55.50460993005972
 20
-106.1860360180052
 30
0.0
  0
VERTEX
  5
F1
330
EB
100
AcDbEntity
  8
assembly
 62
   250
420
  2301728
370
    35
100
AcDbVertex
100
AcDb2dVertex
 10
55.50460992997021
 20
-108.1860431382734
 30
0.0
  0
VERTEX
  5
F2
330
EB
100
AcDbEntity
  8
assembly
 62
   250
420
  2301728
370
    35
100
AcDbVertex
100
AcDb2dVertex
 10
50.50461366114642
 20
-108.1860431380488
 30
0.0
  0
VERTEX
  5
F3
330
EB
100
AcDbEntity
  8
assembly
 62
   250
420
  2301728
370
    35
100
AcDbVertex
100
AcDb2dVertex
 10
50.50461366123594
 20
-106.1860360177806
 30
0.0
  0
VERTEX
  5
F4
330
EB
100
AcDbEntity
  8
assembly
 62
   250
420
  2301728
370
    35
100
AcDbVertex
100
AcDb2dVertex
 10
50.50461366216351
 20
-85.53246350291786
 30
0.0
  0
VERTEX
  5
F5
330
EB
100
AcDbEntity
  8
assembly
 62
   250
420
  2301728
370
    35
100
AcDbVertex
100
AcDb2dVertex
 10
50.50461366225303
 20
-83.53245638264963
 30
0.0
  0
VERTEX
  5
F6
330
EB
100
AcDbEntity
  8
assembly
 62
   250
420
  2301728
370
    35
100
AcDbVertex
100
AcDb2dVertex
 10
55.50460993107681
 20
-83.53245638287423
 30
0.0
  0
SEQEND
  5
F7
330
EB
100
AcDbEntity
  8
assembly
 62
   250
420
  2301728
370
    35
  0
INSERT
  5
F9
330
E7
100
AcDbEntity
  8
assembly
100
AcDbBlockReference
  2
block 9
 10
0.0
 20
0.0
 30
0.0
  0
ENDBLK
  5
EA
330
E7
100
AcDbEntity
  8
0
100
AcDbBlockEnd
  0
BLOCK
  5
FA
330
F8
100
AcDbEntity
  8
0
100
AcDbBlockBegin
  2
block 9
 70
     0
 10
0.0
 20
0.0
 30
0.0
  3
block 9
  1

  0
POLYLINE
  5
FC
330
F8
100
AcDbEntity
  8
assembly
 62
   250
420
  2301728
370
    35
100
AcDb2dPolyline
 66
     1
 10
0.0
 20
0.0
 30
0.0
  0
VERTEX
  5
FD
330
FC
100
AcDbEntity
  8
assembly
 62
   250
420
  2301728
370
    35
100
AcDbVertex
100
AcDb2dVertex
 10
55.00461357574382
 20
-92.57400670575007
 30
0.0
  0
VERTEX
  5
FE
330
FC
100
AcDbEntity
  8
assembly
 62
   250
420
  2301728
370
    35
100
AcDbVertex
100
AcDb2dVertex
 10
52.00461357649353
 20
-92.57400670575007
 30
0.0
  0
VERTEX
  5
FF
330
FC
100
AcDbEntity
  8
assembly
 62
   250
420
  2301728
370
    35
100
AcDbVertex
100
AcDb2dVertex
 10
52.00461357649418
 20
-89.39900670654382
 30
0.0
  0
VERTEX
  5
100
330
FC
100
AcDbEntity
  8
assembly
 62
   250
420
  2301728
370
    35
100
AcDbVertex
100
AcDb2dVertex
 10
55.00461357574382
 20
-89.39900670654382
 30
0.0
  0
VERTEX
  5
101
330
FC
100
AcDbEntity
  8
assembly
 62
   250
420
  2301728
370
    35
100
AcDbVertex
100
AcDb2dVertex
 10
55.00461357574382
 20
-92.57400670575007
 30
0.0
  0
SEQEND
  5
102
330
FC
100
AcDbEntity
  8
assembly
 62
   250
420
  2301728
370
    35
  0
POLYLINE
  5
103
330
F8
100
AcDbEntity
  8
assembly
 62
   250
420
  2301728
370
    35
100
AcDb2dPolyline
 66
     1
 10
0.0
 20
0.0
 30
0.0
  0
VERTEX
  5
104
330
103
100
AcDbEntity
  8
assembly
 62
   250
420
  2301728
370
    35
100
AcDbVertex
100
AcDb2dVertex
 10
55.00461357574382
 20
-102.3194928144248
 30
0.0
  0
VERTEX
  5
105
330
103
100
AcDbEntity
  8
assembly
 62
   250
420
  2301728
370
    35
100
AcDbVertex
100
AcDb2dVertex
 10
52.00461357649418
 20
-102.3194928144248
 30
0.0
  0
VERTEX
  5
106
330
103
100
AcDbEntity
  8
assembly
 62
   250
420
  2301728
370
    35
100
AcDbVertex
100
AcDb2dVertex
 10
52.00461357649418
 20
-99.14449281521856
 30
0.0
  0
VERTEX
  5
107
330
103
100
AcDbEntity
  8
assembly
 62
   250
420
  2301728
370
    35
100
AcDbVertex
100
AcDb2dVertex
 10
55.00461357574382
 20
-99.14449281521856
 30
0.0
  0
VERTEX
  5
108
330
103
100
AcDbEntity
  8
assembly
 62
   250
420
  2301728
370
    35
100
AcDbVertex
100
AcDb2dVertex
 10
55.00461357574382
 20
-102.3194928144248
 30
0.0
  0
SEQEND
  5
109
330
103
100
AcDbEntity
  8
assembly
 62
   250
420
  2301728
370
    35
  0
ENDBLK
  5
FB
330
F8
100
AcDbEntity
  8
0
100
AcDbBlockEnd
  0
BLOCK
  5
10D
330
10B
100
AcDbEntity
  8
0
100
AcDbBlockBegin
  2
block 10
 70
     0
 10
0.0
 20
0.0
 30
0.0
  3
block 10
  1

  0
POLYLINE
  5
10F
330
10B
100
AcDbEntity
  8
outer assembly
 62
   250
420
  2301728
370
    35
100
AcDb2dPolyline
 66
     1
 10
0.0
 20
0.0
 30
0.0
  0
VERTEX
  5
110
330
10F
100
AcDbEntity
  8
outer assembly
 62
   250
420
  2301728
370
    35
100
AcDbVertex
100
AcDb2dVertex
 10
83.93054958867971
 20
-106.6760416399975
 30
0.0
  0
VERTEX
  5
111
330
10F
100
AcDbEntity
  8
outer assembly
 62
   250
420
  2301728
370
    35
100
AcDbVertex
100
AcDb2dVertex
 10
58.93054959492994
 20
-106.6760416399975
 30
0.0
  0
VERTEX
  5
112
330
10F
100
AcDbEntity
  8
outer assembly
 62
   250
420
  2301728
370
    35
100
AcDbVertex
100
AcDb2dVertex
 10
58.93054959492994
 20
-85.67604164524748
 30
0.0
  0
VERTEX
  5
113
330
10F
100
AcDbEntity
  8
outer assembly
 62
   250
420
  2301728
370
    35
100
AcDbVertex
100
AcDb2dVertex
 10
83.93054958867971
 20
-85.67604164524748
 30
0.0
  0
VERTEX
  5
114
330
10F
100
AcDbEntity
  8
outer assembly
 62
   250
420
  2301728
370
    35
100
AcDbVertex
100
AcDb2dVertex
 10
83.93054958867971
 20
-106.6760416399975
 30
0.0
  0
SEQEND
  5
115
330
10F
100
AcDbEntity
  8
outer assembly
 62
   250
420
  2301728
370
    35
  0
INSERT
  5
117
330
10B
100
AcDbEntity
  8
outer assembly
100
AcDbBlockReference
  2
block 11
 10
0.0
 20
0.0
 30
0.0
  0
POLYLINE
  5
13E
330
10B
100
AcDbEntity
  8
outer assembly
 62
   250
420
  2301728
370
    35
100
AcDb2dPolyline
 66
     1
 10
0.0
 20
0.0
 30
0.0
  0
VERTEX
  5
13F
330
13E
100
AcDbEntity
  8
outer assembly
 62
   250
420
  2301728
370
    35
100
AcDbVertex
100
AcDb2dVertex
 10
72.93054959142964
 20
-98.17604164212253
 30
0.0
  0
VERTEX
  5
140
330
13E
100
AcDbEntity
  8
outer assembly
 62
   250
420
  2301728
370
    35
100
AcDbVertex
100
AcDb2dVertex
 10
69.93054959217969
 20
-98.17604164212253
 30
0.0
  0
VERTEX
  5
141
330
13E
100
AcDbEntity
  8
outer assembly
 62
   250
420
  2301728
370
    35
100
AcDbVertex
100
AcDb2dVertex
 10
69.93054959217969
 20
-94.1760416431228
 30
0.0
  0
VERTEX
  5
142
330
13E
100
AcDbEntity
  8
outer assembly
 62
   250
420
  2301728
370
    35
100
AcDbVertex
100
AcDb2dVertex
 10
72.93054959142964
 20
-94.1760416431228
 30
0.0
  0
VERTEX
  5
143
330
13E
100
AcDbEntity
  8
outer assembly
 62
   250
420
  2301728
370
    35
100
AcDbVertex
100
AcDb2dVertex
 10
72.93054959142964
 20
-98.17604164212253
 30
0.0
  0
SEQEND
  5
144
330
13E
100
AcDbEntity
  8
outer assembly
 62
   250
420
  2301728
370
    35
  0
ENDBLK
  5
10E
330
10B
100
AcDbEntity
  8
0
100
AcDbBlockEnd
  0
BLOCK
  5
118
330
116
100
AcDbEntity
  8
0
100
AcDbBlockBegin
  2
block 11
 70
     0
 10
0.0
 20
0.0
 30
0.0
  3
block 11
  1

  0
INSERT
  5
11B
330
116
100
AcDbEntity
  8
outer assembly
100
AcDbBlockReference
  2
block 12
 10
0.0
 20
0.0
 30
0.0
  0
INSERT
  5
12D
330
116
100
AcDbEntity
  8
outer assembly
100
AcDbBlockReference
  2
block 13
 10
0.0
 20
0.0
 30
0.0
  0
ENDBLK
  5
119
330
116
100
AcDbEntity
  8
0
100
AcDbBlockEnd
  0
BLOCK
  5
11C
330
11A
100
AcDbEntity
  8
0
100
AcDbBlockBegin
  2
block 12
 70
     0
 10
0.0
 20
0.0
 30
0.0
  3
block 12
  1

  0
POLYLINE
  5
11E
330
11A
100
AcDbEntity
  8
outer assembly
 62
   250
420
  2301728
370
    35
100
AcDb2dPolyline
 66
     1
 10
0.0
 20
0.0
 30
0.0
  0
VERTEX
  5
11F
330
11E
100
AcDbEntity
  8
outer assembly
 62
   250
420
  2301728
370
    35
100
AcDbVertex
100
AcDb2dVertex
 10
81.36450321268036
 20
-93.23844519260146
 30
0.0
  0
VERTEX
  5
120
330
11E
100
AcDbEntity
  8
outer assembly
 62
   250
420
  2301728
370
    35
100
AcDbVertex
100
AcDb2dVertex
 10
78.3645032134304
 20
-93.23844519260146
 30
0.0
  0
VERTEX
  5
121
330
11E
100
AcDbEntity
  8
outer assembly
 62
   250
420
  2301728
370
    35
100
AcDbVertex
100
AcDb2dVertex
 10
78.3645032134304
 20
-90.06344519339521
 30
0.0
  0
VERTEX
  5
122
330
11E
100
AcDbEntity
  8
outer assembly
 62
   250
420
  2301728
370
    35
100
AcDbVertex
100
AcDb2dVertex
 10
81.36450321268036
 20
-90.06344519339521
 30
0.0
  0
VERTEX
  5
123
330
11E
100
AcDbEntity
  8
outer assembly
 62
   250
420
  2301728
370
    35
100
AcDbVertex
100
AcDb2dVertex
 10
81.36450321268036
 20
-93.23844519260146
 30
0.0
  0
SEQEND
  5
124
330
11E
100
AcDbEntity
  8
outer assembly
 62
   250
420
  2301728
370
    35
  0
POLYLINE
  5
125
330
11A
100
AcDbEntity
  8
outer assembly
 62
   250
420
  2301728
370
    35
100
AcDb2dPolyline
 66
     1
 10
0.0
 20
0.0
 30
0.0
  0
VERTEX
  5
126
330
125
100
AcDbEntity
  8
outer assembly
 62
   250
420
  2301728
370
    35
100
AcDbVertex
100
AcDb2dVertex
 10
81.36450321268036
 20
-102.9839313012762
 30
0.0
  0
VERTEX
  5
127
330
125
100
AcDbEntity
  8
outer assembly
 62
   250
420
  2301728
370
    35
100
AcDbVertex
100
AcDb2dVertex
 10
78.3645032134304
 20
-102.9839313012762
 30
0.0
  0
VERTEX
  5
128
330
125
100
AcDbEntity
  8
outer assembly
 62
   250
420
  2301728
370
    35
100
AcDbVertex
100
AcDb2dVertex
 10
78.3645032134304
 20
-99.80893130206995
 30
0.0
  0
VERTEX
  5
129
330
125
100
AcDbEntity
  8
outer assembly
 62
   250
420
  2301728
370
    35
100
AcDbVertex
100
AcDb2dVertex
 10
81.36450321268036
 20
-99.80893130206995
 30
0.0
  0
VERTEX
  5
12A
330
125
100
AcDbEntity
  8
outer assembly
 62
   250
420
  2301728
370
    35
100
AcDbVertex
100
AcDb2dVertex
 10
81.36450321268036
 20
-102.9839313012762
 30
0.0
  0
SEQEND
  5
12B
330
125
100
AcDbEntity
  8
outer assembly
 62
   250
420
  2301728
370
    35
  0
ENDBLK
  5
11D
330
11A
100
AcDbEntity
  8
0
100
AcDbBlockEnd
  0
BLOCK
  5
12E
330
12C
100
AcDbEntity
  8
0
100
AcDbBlockBegin
  2
block 13
 70
     0
 10
0.0
 20
0.0
 30
0.0
  3
block 13
  1

  0
POLYLINE
  5
130
330
12C
100
AcDbEntity
  8
outer assembly
 62
   250
420
  2301728
370
    35
100
AcDb2dPolyline
 66
     1
 10
0.0
 20
0.0
 30
0.0
  0
VERTEX
  5
131
330
130
100
AcDbEntity
  8
outer assembly
 62
   250
420
  2301728
370
    35
100
AcDbVertex
100
AcDb2dVertex
 10
64.49659597017924
 20
-93.23844519260146
 30
0.0
  0
VERTEX
  5
132
330
130
100
AcDbEntity
  8
outer assembly
 62
   250
420
  2301728
370
    35
100
AcDbVertex
100
AcDb2dVertex
 10
61.49659597092928
 20
-93.23844519260146
 30
0.0
  0
VERTEX
  5
133
330
130
100
AcDbEntity
  8
outer assembly
 62
   250
420
  2301728
370
    35
100
AcDbVertex
100
AcDb2dVertex
 10
61.49659597092928
 20
-90.06344519339521
 30
0.0
  0
VERTEX
  5
134
330
130
100
AcDbEntity
  8
outer assembly
 62
   250
420
  2301728
370
    35
100
AcDbVertex
100
AcDb2dVertex
 10
64.49659597017924
 20
-90.06344519339521
 30
0.0
  0
VERTEX
  5
135
330
130
100
AcDbEntity
  8
outer assembly
 62
   250
420
  2301728
370
    35
100
AcDbVertex
100
AcDb2dVertex
 10
64.49659597017924
 20
-93.23844519260146
 30
0.0
  0
SEQEND
  5
136
330
130
100
AcDbEntity
  8
outer assembly
 62
   250
420
  2301728
370
    35
  0
POLYLINE
  5
137
330
12C
100
AcDbEntity
  8
outer assembly
 62
   250
420
  2301728
370
    35
100
AcDb2dPolyline
 66
     1
 10
0.0
 20
0.0
 30
0.0
  0
VERTEX
  5
138
330
137
100
AcDbEntity
  8
outer assembly
 62
   250
420
  2301728
370
    35
100
AcDbVertex
100
AcDb2dVertex
 10
64.49659597017924
 20
-102.9839313012762
 30
0.0
  0
VERTEX
  5
139
330
137
100
AcDbEntity
  8
outer assembly
 62
   250
420
  2301728
370
    35
100
AcDbVertex
100
AcDb2dVertex
 10
61.49659597092928
 20
-102.9839313012762
 30
0.0
  0
VERTEX
  5
13A
330
137
100
AcDbEntity
  8
outer assembly
 62
   250
420
  2301728
370
    35
100
AcDbVertex
100
AcDb2dVertex
 10
61.49659597092928
 20
-99.80893130206995
 30
0.0
  0
VERTEX
  5
13B
330
137
100
AcDbEntity
  8
outer assembly
 62
   250
420
  2301728
370
    35
100
AcDbVertex
100
AcDb2dVertex
 10
64.49659597017924
 20
-99.80893130206995
 30
0.0
  0
VERTEX
  5
13C
330
137
100
AcDbEntity
  8
outer assembly
 62
   250
420
  2301728
370
    35
100
AcDbVertex
100
AcDb2dVertex
 10
64.49659597017924
 20
-102.9839313012762
 30
0.0
  0
SEQEND
  5
13D
330
137
100
AcDbEntity
  8
outer assembly
 62
   250
420
  2301728
370
    35
  0
ENDBLK
  5
12F
330
12C
100
AcDbEntity
  8
0
100
AcDbBlockEnd
  0
BLOCK
  5
156
330
154
100
AcDbEntity
  8
0
100
AcDbBlockBegin
  2
block 14
 70
     0
 10
0.0
 20
0.0
 30
0.0
  3
block 14
  1

  0
SPLINE
  5
158
330
154
100
AcDbEntity
  8
outer assembly
 62
   250
420
  2301728
370
    35
100
AcDbSpline
210
0.0
220
0.0
230
1.0
 70
    11
 71
     3
 72
    17
 73
    13
 74
     0
 42
0.0000000001
 43
0.0000000001
 12
1.0
 22
0.0
 32
0.0
 13
1.0
 23
0.0
 33
0.0
 40
0.0
 40
0.0
 40
0.0
 40
0.0
 40
1.0
 40
1.0
 40
1.0
 40
2.0
 40
2.0
 40
2.0
 40
3.0
 40
3.0
 40
3.0
 40
4.0
 40
4.0
 40
4.0
 40
4.0
 10
91.25030417630765
 20
-102.2129234500227
 30
0.0
 10
94.0117279246173
 20
-102.2129234500227
 30
0.0
 10
96.25030417505779
 20
-104.4514997004625
 30
0.0
 10
96.25030417505779
 20
-107.2129234487722
 30
0.0
 10
96.25030417505779
 20
-109.9743471970828
 30
0.0
 10
94.0117279246173
 20
-112.212923447523
 30
0.0
 10
91.25030417630765
 20
-112.212923447523
 30
0.0
 10
88.48888042799767
 20
-112.212923447523
 30
0.0
 10
86.2503041775575
 20
-109.9743471970828
 30
0.0
 10
86.2503041775575
 20
-107.2129234487722
 30
0.0
 10
86.2503041775575
 20
-104.4514997004625
 30
0.0
 10
88.48888042799767
 20
-102.2129234500227
 30
0.0
 10
91.25030417630765
 20
-102.2129234500227
 30
0.0
  0
POLYLINE
  5
159
330
154
100
AcDbEntity
  8
outer assembly
 62
   250
420
  2301728
370
    35
100
AcDb2dPolyline
 66
     1
 10
0.0
 20
0.0
 30
0.0
  0
VERTEX
  5
15A
330
159
100
AcDbEntity
  8
outer assembly
 62
   250
420
  2301728
370
    35
100
AcDbVertex
100
AcDb2dVertex
 10
92.75030417593263
 20
-105.7129234491479
 30
0.0
  0
VERTEX
  5
15B
330
159
100
AcDbEntity
  8
outer assembly
 62
   250
420
  2301728
370
    35
100
AcDbVertex
100
AcDb2dVertex
 10
92.75030417593263
 20
-108.7129234483975
 30
0.0
  0
VERTEX
  5
15C
330
159
100
AcDbEntity
  8
outer assembly
 62
   250
420
  2301728
370
    35
100
AcDbVertex
100
AcDb2dVertex
 10
89.75030417668266
 20
-108.7129234483975
 30
0.0
  0
VERTEX
  5
15D
330
159
100
AcDbEntity
  8
outer assembly
 62
   250
420
  2301728
370
    35
100
AcDbVertex
100
AcDb2dVertex
 10
89.75030417668266
 20
-105.7129234491479
 30
0.0
  0
VERTEX
  5
15E
330
159
100
AcDbEntity
  8
outer assembly
 62
   250
420
  2301728
370
    35
100
AcDbVertex
100
AcDb2dVertex
 10
92.75030417593263
 20
-105.7129234491479
 30
0.0
  0
SEQEND
  5
15F
330
159
100
AcDbEntity
  8
outer assembly
 62
   250
420
  2301728
370
    35
  0
ENDBLK
  5
157
330
154
100
AcDbEntity
  8
0
100
AcDbBlockEnd
  0
BLOCK
  5
162
330
160
100
AcDbEntity
  8
0
100
AcDbBlockBegin
  2
block 15
 70
     0
 10
0.0
 20
0.0
 30
0.0
  3
block 15
  1

  0
POLYLINE
  5
164
330
160
100
AcDbEntity
  8
outer assembly
 62
   250
420
  2301728
370
    35
100
AcDb2dPolyline
 66
     1
 10
0.0
 20
0.0
 30
0.0
  0
VERTEX
  5
165
330
164
100
AcDbEntity
  8
outer assembly
 62
   250
420
  2301728
370
    35
100
AcDbVertex
100
AcDb2dVertex
 10
83.93055102978752
 20
-114.7821266452498
 30
0.0
  0
VERTEX
  5
166
330
164
100
AcDbEntity
  8
outer assembly
 62
   250
420
  2301728
370
    35
100
AcDbVertex
100
AcDb2dVertex
 10
80.93056188123195
 20
-114.7821266452498
 30
0.0
  0
VERTEX
  5
167
330
164
100
AcDbEntity
  8
outer assembly
 62
   250
420
  2301728
370
    35
100
AcDbVertex
100
AcDb2dVertex
 10
80.93056188123195
 20
-113.7821446169624
 30
0.0
  0
VERTEX
  5
168
330
164
100
AcDbEntity
  8
outer assembly
 62
   250
420
  2301728
370
    35
100
AcDbVertex
100
AcDb2dVertex
 10
61.93055883422414
 20
-113.7821446169624
 30
0.0
  0
VERTEX
  5
169
330
164
100
AcDbEntity
  8
outer assembly
 62
   250
420
  2301728
370
    35
100
AcDbVertex
100
AcDb2dVertex
 10
61.93055883422414
 20
-114.7821266452498
 30
0.0
  0
VERTEX
  5
16A
330
164
100
AcDbEntity
  8
outer assembly
 62
   250
420
  2301728
370
    35
100
AcDbVertex
100
AcDb2dVertex
 10
58.9305481538218
 20
-114.7821266452498
 30
0.0
  0
VERTEX
  5
16B
330
164
100
AcDbEntity
  8
outer assembly
 62
   250
420
  2301728
370
    35
100
AcDbVertex
100
AcDb2dVertex
 10
58.9305481538218
 20
-117.7821373256521
 30
0.0
  0
VERTEX
  5
16C
330
164
100
AcDbEntity
  8
outer assembly
 62
   250
420
  2301728
370
    35
100
AcDbVertex
100
AcDb2dVertex
 10
61.93055883422414
 20
-117.7821373256521
 30
0.0
  0
VERTEX
  5
16D
330
164
100
AcDbEntity
  8
outer assembly
 62
   250
420
  2301728
370
    35
100
AcDbVertex
100
AcDb2dVertex
 10
61.93055883422414
 20
-118.7821408857862
 30
0.0
  0
VERTEX
  5
16E
330
164
100
AcDbEntity
  8
outer assembly
 62
   250
420
  2301728
370
    35
100
AcDbVertex
100
AcDb2dVertex
 10
80.93056188123195
 20
-118.7821408857862
 30
0.0
  0
VERTEX
  5
16F
330
164
100
AcDbEntity
  8
outer assembly
 62
   250
420
  2301728
370
    35
100
AcDbVertex
100
AcDb2dVertex
 10
80.93056188123195
 20
-117.7821373256521
 30
0.0
  0
VERTEX
  5
170
330
164
100
AcDbEntity
  8
outer assembly
 62
   250
420
  2301728
370
    35
100
AcDbVertex
100
AcDb2dVertex
 10
83.93055102978752
 20
-117.7821373256521
 30
0.0
  0
VERTEX
  5
171
330
164
100
AcDbEntity
  8
outer assembly
 62
   250
420
  2301728
370
    35
100
AcDbVertex
100
AcDb2dVertex
 10
83.93055102978752
 20
-114.7821266452498
 30
0.0
  0
SEQEND
  5
172
330
164
100
AcDbEntity
  8
outer assembly
 62
   250
420
  2301728
370
    35
  0
POLYLINE
  5
173
330
160
100
AcDbEntity
  8
outer assembly
 62
   250
420
  2301728
370
    35
100
AcDb2dPolyline
 66
     1
 10
0.0
 20
0.0
 30
0.0
  0
VERTEX
  5
174
330
173
100
AcDbEntity
  8
outer assembly
 62
   250
420
  2301728
370
    35
100
AcDbVertex
100
AcDb2dVertex
 10
83.93055102978752
 20
-109.0064672126933
 30
0.0
  0
VERTEX
  5
175
330
173
100
AcDbEntity
  8
outer assembly
 62
   250
420
  2301728
370
    35
100
AcDbVertex
100
AcDb2dVertex
 10
80.93056188123195
 20
-109.0064672126933
 30
0.0
  0
VERTEX
  5
176
330
173
100
AcDbEntity
  8
outer assembly
 62
   250
420
  2301728
370
    35
100
AcDbVertex
100
AcDb2dVertex
 10
80.93056188123195
 20
-108.0064851844063
 30
0.0
  0
VERTEX
  5
177
330
173
100
AcDbEntity
  8
outer assembly
 62
   250
420
  2301728
370
    35
100
AcDbVertex
100
AcDb2dVertex
 10
61.93055883422414
 20
-108.0064851844063
 30
0.0
  0
VERTEX
  5
178
330
173
100
AcDbEntity
  8
outer assembly
 62
   250
420
  2301728
370
    35
100
AcDbVertex
100
AcDb2dVertex
 10
61.93055883422414
 20
-109.0064672126933
 30
0.0
  0
VERTEX
  5
179
330
173
100
AcDbEntity
  8
outer assembly
 62
   250
420
  2301728
370
    35
100
AcDbVertex
100
AcDb2dVertex
 10
58.9305481538218
 20
-109.0064672126933
 30
0.0
  0
VERTEX
  5
17A
330
173
100
AcDbEntity
  8
outer assembly
 62
   250
420
  2301728
370
    35
100
AcDbVertex
100
AcDb2dVertex
 10
58.9305481538218
 20
-112.0064778930956
 30
0.0
  0
VERTEX
  5
17B
330
173
100
AcDbEntity
  8
outer assembly
 62
   250
420
  2301728
370
    35
100
AcDbVertex
100
AcDb2dVertex
 10
61.93055883422414
 20
-112.0064778930956
 30
0.0
  0
VERTEX
  5
17C
330
173
100
AcDbEntity
  8
outer assembly
 62
   250
420
  2301728
370
    35
100
AcDbVertex
100
AcDb2dVertex
 10
61.93055883422414
 20
-113.0064814532298
 30
0.0
  0
VERTEX
  5
17D
330
173
100
AcDbEntity
  8
outer assembly
 62
   250
420
  2301728
370
    35
100
AcDbVertex
100
AcDb2dVertex
 10
80.93056188123195
 20
-113.0064814532298
 30
0.0
  0
VERTEX
  5
17E
330
173
100
AcDbEntity
  8
outer assembly
 62
   250
420
  2301728
370
    35
100
AcDbVertex
100
AcDb2dVertex
 10
80.93056188123195
 20
-112.0064778930956
 30
0.0
  0
VERTEX
  5
17F
330
173
100
AcDbEntity
  8
outer assembly
 62
   250
420
  2301728
370
    35
100
AcDbVertex
100
AcDb2dVertex
 10
83.93055102978752
 20
-112.0064778930956
 30
0.0
  0
VERTEX
  5
180
330
173
100
AcDbEntity
  8
outer assembly
 62
   250
420
  2301728
370
    35
100
AcDbVertex
100
AcDb2dVertex
 10
83.93055102978752
 20
-109.0064672126933
 30
0.0
  0
SEQEND
  5
181
330
173
100
AcDbEntity
  8
outer assembly
 62
   250
420
  2301728
370
    35
  0
POLYLINE
  5
182
330
160
100
AcDbEntity
  8
outer assembly
 62
   250
420
  2301728
370
    35
100
AcDb2dPolyline
 66
     1
 10
0.0
 20
0.0
 30
0.0
  0
VERTEX
  5
183
330
182
100
AcDbEntity
  8
outer assembly
 62
   250
420
  2301728
370
    35
100
AcDbVertex
100
AcDb2dVertex
 10
83.93055102978752
 20
-126.333445510363
 30
0.0
  0
VERTEX
  5
184
330
182
100
AcDbEntity
  8
outer assembly
 62
   250
420
  2301728
370
    35
100
AcDbVertex
100
AcDb2dVertex
 10
80.93056188123195
 20
-126.333445510363
 30
0.0
  0
VERTEX
  5
185
330
182
100
AcDbEntity
  8
outer assembly
 62
   250
420
  2301728
370
    35
100
AcDbVertex
100
AcDb2dVertex
 10
80.93056188123195
 20
-125.3334634820753
 30
0.0
  0
VERTEX
  5
186
330
182
100
AcDbEntity
  8
outer assembly
 62
   250
420
  2301728
370
    35
100
AcDbVertex
100
AcDb2dVertex
 10
61.93055883422414
 20
-125.3334634820753
 30
0.0
  0
VERTEX
  5
187
330
182
100
AcDbEntity
  8
outer assembly
 62
   250
420
  2301728
370
    35
100
AcDbVertex
100
AcDb2dVertex
 10
61.93055883422414
 20
-126.333445510363
 30
0.0
  0
VERTEX
  5
188
330
182
100
AcDbEntity
  8
outer assembly
 62
   250
420
  2301728
370
    35
100
AcDbVertex
100
AcDb2dVertex
 10
58.9305481538218
 20
-126.333445510363
 30
0.0
  0
VERTEX
  5
189
330
182
100
AcDbEntity
  8
outer assembly
 62
   250
420
  2301728
370
    35
100
AcDbVertex
100
AcDb2dVertex
 10
58.9305481538218
 20
-129.333456190765
 30
0.0
  0
VERTEX
  5
18A
330
182
100
AcDbEntity
  8
outer assembly
 62
   250
420
  2301728
370
    35
100
AcDbVertex
100
AcDb2dVertex
 10
61.93055883422414
 20
-129.333456190765
 30
0.0
  0
VERTEX
  5
18B
330
182
100
AcDbEntity
  8
outer assembly
 62
   250
420
  2301728
370
    35
100
AcDbVertex
100
AcDb2dVertex
 10
61.93055883422414
 20
-130.3334597508994
 30
0.0
  0
VERTEX
  5
18C
330
182
100
AcDbEntity
  8
outer assembly
 62
   250
420
  2301728
370
    35
100
AcDbVertex
100
AcDb2dVertex
 10
80.93056188123195
 20
-130.3334597508994
 30
0.0
  0
VERTEX
  5
18D
330
182
100
AcDbEntity
  8
outer assembly
 62
   250
420
  2301728
370
    35
100
AcDbVertex
100
AcDb2dVertex
 10
80.93056188123195
 20
-129.333456190765
 30
0.0
  0
VERTEX
  5
18E
330
182
100
AcDbEntity
  8
outer assembly
 62
   250
420
  2301728
370
    35
100
AcDbVertex
100
AcDb2dVertex
 10
83.93055102978752
 20
-129.333456190765
 30
0.0
  0
VERTEX
  5
18F
330
182
100
AcDbEntity
  8
outer assembly
 62
   250
420
  2301728
370
    35
100
AcDbVertex
100
AcDb2dVertex
 10
83.93055102978752
 20
-126.333445510363
 30
0.0
  0
SEQEND
  5
190
330
182
100
AcDbEntity
  8
outer assembly
 62
   250
420
  2301728
370
    35
  0
POLYLINE
  5
191
330
160
100
AcDbEntity
  8
outer assembly
 62
   250
420
  2301728
370
    35
100
AcDb2dPolyline
 66
     1
 10
0.0
 20
0.0
 30
0.0
  0
VERTEX
  5
192
330
191
100
AcDbEntity
  8
outer assembly
 62
   250
420
  2301728
370
    35
100
AcDbVertex
100
AcDb2dVertex
 10
83.93055102978752
 20
-120.5577860778062
 30
0.0
  0
VERTEX
  5
193
330
191
100
AcDbEntity
  8
outer assembly
 62
   250
420
  2301728
370
    35
100
AcDbVertex
100
AcDb2dVertex
 10
80.93056188123195
 20
-120.5577860778062
 30
0.0
  0
VERTEX
  5
194
330
191
100
AcDbEntity
  8
outer assembly
 62
   250
420
  2301728
370
    35
100
AcDbVertex
100
AcDb2dVertex
 10
80.93056188123195
 20
-119.5578040495189
 30
0.0
  0
VERTEX
  5
195
330
191
100
AcDbEntity
  8
outer assembly
 62
   250
420
  2301728
370
    35
100
AcDbVertex
100
AcDb2dVertex
 10
61.93055883422414
 20
-119.5578040495189
 30
0.0
  0
VERTEX
  5
196
330
191
100
AcDbEntity
  8
outer assembly
 62
   250
420
  2301728
370
    35
100
AcDbVertex
100
AcDb2dVertex
 10
61.93055883422414
 20
-120.5577860778062
 30
0.0
  0
VERTEX
  5
197
330
191
100
AcDbEntity
  8
outer assembly
 62
   250
420
  2301728
370
    35
100
AcDbVertex
100
AcDb2dVertex
 10
58.9305481538218
 20
-120.5577860778062
 30
0.0
  0
VERTEX
  5
198
330
191
100
AcDbEntity
  8
outer assembly
 62
   250
420
  2301728
370
    35
100
AcDbVertex
100
AcDb2dVertex
 10
58.9305481538218
 20
-123.5577967582086
 30
0.0
  0
VERTEX
  5
199
330
191
100
AcDbEntity
  8
outer assembly
 62
   250
420
  2301728
370
    35
100
AcDbVertex
100
AcDb2dVertex
 10
61.93055883422414
 20
-123.5577967582086
 30
0.0
  0
VERTEX
  5
19A
330
191
100
AcDbEntity
  8
outer assembly
 62
   250
420
  2301728
370
    35
100
AcDbVertex
100
AcDb2dVertex
 10
61.93055883422414
 20
-124.5578003183427
 30
0.0
  0
VERTEX
  5
19B
330
191
100
AcDbEntity
  8
outer assembly
 62
   250
420
  2301728
370
    35
100
AcDbVertex
100
AcDb2dVertex
 10
80.93056188123195
 20
-124.5578003183427
 30
0.0
  0
VERTEX
  5
19C
330
191
100
AcDbEntity
  8
outer assembly
 62
   250
420
  2301728
370
    35
100
AcDbVertex
100
AcDb2dVertex
 10
80.93056188123195
 20
-123.5577967582086
 30
0.0
  0
VERTEX
  5
19D
330
191
100
AcDbEntity
  8
outer assembly
 62
   250
420
  2301728
370
    35
100
AcDbVertex
100
AcDb2dVertex
 10
83.93055102978752
 20
-123.5577967582086
 30
0.0
  0
VERTEX
  5
19E
330
191
100
AcDbEntity
  8
outer assembly
 62
   250
420
  2301728
370
    35
100
AcDbVertex
100
AcDb2dVertex
 10
83.93055102978752
 20
-120.5577860778062
 30
0.0
  0
SEQEND
  5
19F
330
191
100
AcDbEntity
  8
outer assembly
 62
   250
420
  2301728
370
    35
  0
ENDBLK
  5
163
330
160
100
AcDbEntity
  8
0
100
AcDbBlockEnd
  0
ENDSEC
  0
SECTION
  2
ENTITIES
  0
INSERT
  5
42
330
1F
100
AcDbEntity
  8
parts
100
AcDbBlockReference
  2
block 2
 10
0.0
 20
0.0
 30
0.0
  0
POLYLINE
  5
5A
330
1F
100
AcDbEntity
  8
parts
 62
   250
420
  2301728
370
    35
100
AcDb2dPolyline
 66
     1
 10
0.0
 20
0.0
 30
0.0
  0
VERTEX
  5
5B
330
5A
100
AcDbEntity
  8
parts
 62
   250
420
  2301728
370
    35
100
AcDbVertex
100
AcDb2dVertex
 10
168.2749999579313
 20
-103.6398911031952
 30
0.0
  0
VERTEX
  5
5C
330
5A
100
AcDbEntity
  8
parts
 62
   250
420
  2301728
370
    35
100
AcDbVertex
100
AcDb2dVertex
 10
125.5888888574917
 20
-103.6398911031952
 30
0.0
  0
VERTEX
  5
5D
330
5A
100
AcDbEntity
  8
parts
 62
   250
420
  2301728
370
    35
100
AcDbVertex
100
AcDb2dVertex
 10
125.5888888574917
 20
-67.71219218729976
 30
0.0
  0
VERTEX
  5
5E
330
5A
100
AcDbEntity
  8
parts
 62
   250
420
  2301728
370
    35
100
AcDbVertex
100
AcDb2dVertex
 10
168.2749999579313
 20
-67.71219218729976
 30
0.0
  0
VERTEX
  5
5F
330
5A
100
AcDbEntity
  8
parts
 62
   250
420
  2301728
370
    35
100
AcDbVertex
100
AcDb2dVertex
 10
168.2749999579313
 20
-103.6398911031952
 30
0.0
  0
SEQEND
  5
60
330
5A
100
AcDbEntity
  8
parts
 62
   250
420
  2301728
370
    35
  0
POLYLINE
  5
61
330
1F
100
AcDbEntity
  8
parts
 62
   250
420
  2301728
370
    35
100
AcDb2dPolyline
 66
     1
 10
0.0
 20
0.0
 30
0.0
  0
VERTEX
  5
62
330
61
100
AcDbEntity
  8
parts
 62
   250
420
  2301728
370
    35
100
AcDbVertex
100
AcDb2dVertex
 10
150.3138888513102
 20
-80.07765088817544
 30
0.0
  0
VERTEX
  5
63
330
61
100
AcDbEntity
  8
parts
 62
   250
420
  2301728
370
    35
100
AcDbVertex
100
AcDb2dVertex
 10
145.3138888525607
 20
-80.07765088817544
 30
0.0
  0
VERTEX
  5
64
330
61
100
AcDbEntity
  8
parts
 62
   250
420
  2301728
370
    35
100
AcDbVertex
100
AcDb2dVertex
 10
145.3138888525607
 20
-77.07765088892516
 30
0.0
  0
VERTEX
  5
65
330
61
100
AcDbEntity
  8
parts
 62
   250
420
  2301728
370
    35
100
AcDbVertex
100
AcDb2dVertex
 10
150.3138888513102
 20
-77.07765088892516
 30
0.0
  0
VERTEX
  5
66
330
61
100
AcDbEntity
  8
parts
 62
   250
420
  2301728
370
    35
100
AcDbVertex
100
AcDb2dVertex
 10
150.3138888513102
 20
-80.07765088817544
 30
0.0
  0
SEQEND
  5
67
330
61
100
AcDbEntity
  8
parts
 62
   250
420
  2301728
370
    35
  0
INSERT
  5
69
330
1F
100
AcDbEntity
  8
parts
100
AcDbBlockReference
  2
block 3
 10
0.0
 20
0.0
 30
0.0
  0
MTEXT
  5
6E
330
1F
100
AcDbEntity
  8
parts
 62
   250
420
  2301728
100
AcDbMText
 10
135.5842581039128
 20
-150.7538196239818
 30
0.0
 40
2.9971999992507
 41
0.0
 46
0.0
 71
     7
 72
     1
  1
\fMyriad Pro|b0|i0|c0|p34;\W1;4.3mm axle hole
 73
     1
 44
1.0
  0
MTEXT
  5
6F
330
1F
100
AcDbEntity
  8
parts
 62
   250
420
  2301728
100
AcDbMText
 10
137.9361110766271
 20
-181.7980332661824
 30
0.0
 40
2.9971999992507
 41
0.0
 46
0.0
 71
     7
 72
     1
  1
\fMyriad Pro|b0|i0|c0|p34;\W1;70mm wheel
 73
     1
 44
1.0
  0
MTEXT
  5
70
330
1F
100
AcDbEntity
  8
parts
 62
   250
420
  2301728
100
AcDbMText
 10
55.63675726983139
 20
-176.6241888664343
 30
0.0
 40
2.9971999992507
 41
0.0
 46
0.0
 71
     7
 72
     1
  1
\fMyriad Pro|b0|i0|c0|p34;\W1;axle primitives
 73
     1
 44
1.0
  0
MTEXT
  5
71
330
1F
100
AcDbEntity
  8
parts
 62
   250
420
  2301728
100
AcDbMText
 10
133.817836195552
 20
-65.42719346371099
 30
0.0
 40
2.9971999992507
 41
0.0
 46
0.0
 71
     7
 72
     1
  1
\fMyriad Pro|b0|i0|c0|p34;\W1;Sample base
 73
     1
 44
1.0
  0
INSERT
  5
74
330
1F
100
AcDbEntity
  8
assembly
100
AcDbBlockReference
  2
block 4
 10
0.0
 20
0.0
 30
0.0
  0
POLYLINE
  5
A7
330
1F
100
AcDbEntity
  8
assembly
 62
   250
420
  2301728
370
    35
100
AcDb2dPolyline
 66
     1
 10
0.0
 20
0.0
 30
0.0
  0
VERTEX
  5
A8
330
A7
100
AcDbEntity
  8
assembly
 62
   250
420
  2301728
370
    35
100
AcDbVertex
100
AcDb2dVertex
 10
47.59380131040108
 20
-107.1562499732109
 30
0.0
  0
VERTEX
  5
A9
330
A7
100
AcDbEntity
  8
assembly
 62
   250
420
  2301728
370
    35
100
AcDbVertex
100
AcDb2dVertex
 10
47.59380131040108
 20
-81.88797146018769
 30
0.0
  0
VERTEX
  5
AA
330
A7
100
AcDbEntity
  8
assembly
 62
   250
420
  2301728
370
    35
100
AcDbVertex
100
AcDb2dVertex
 10
47.09381029625709
 20
-81.88797146018769
 30
0.0
  0
VERTEX
  5
AB
330
A7
100
AcDbEntity
  8
assembly
 62
   250
420
  2301728
370
    35
100
AcDbVertex
100
AcDb2dVertex
 10
47.09381029625709
 20
-77.29032583597571
 30
0.0
  0
VERTEX
  5
AC
330
A7
100
AcDbEntity
  8
assembly
 62
   250
420
  2301728
370
    35
100
AcDbVertex
100
AcDb2dVertex
 10
45.09380317598918
 20
-77.29032583597571
 30
0.0
  0
VERTEX
  5
AD
330
A7
100
AcDbEntity
  8
assembly
 62
   250
420
  2301728
370
    35
100
AcDbVertex
100
AcDb2dVertex
 10
45.09380317598918
 20
-81.88797146018769
 30
0.0
  0
VERTEX
  5
AE
330
A7
100
AcDbEntity
  8
assembly
 62
   250
420
  2301728
370
    35
100
AcDbVertex
100
AcDb2dVertex
 10
44.59381216184551
 20
-81.88797146018769
 30
0.0
  0
VERTEX
  5
AF
330
A7
100
AcDbEntity
  8
assembly
 62
   250
420
  2301728
370
    35
100
AcDbVertex
100
AcDb2dVertex
 10
44.59381216184551
 20
-107.1562499732109
 30
0.0
  0
VERTEX
  5
B0
330
A7
100
AcDbEntity
  8
assembly
 62
   250
420
  2301728
370
    35
100
AcDbVertex
100
AcDb2dVertex
 10
43.5938086017114
 20
-107.1562499732109
 30
0.0
  0
VERTEX
  5
B1
330
A7
100
AcDbEntity
  8
assembly
 62
   250
420
  2301728
370
    35
100
AcDbVertex
100
AcDb2dVertex
 10
43.5938086017114
 20
-110.1562606536133
 30
0.0
  0
VERTEX
  5
B2
330
A7
100
AcDbEntity
  8
assembly
 62
   250
420
  2301728
370
    35
100
AcDbVertex
100
AcDb2dVertex
 10
44.59381216184551
 20
-110.1562606536133
 30
0.0
  0
VERTEX
  5
B3
330
A7
100
AcDbEntity
  8
assembly
 62
   250
420
  2301728
370
    35
100
AcDbVertex
100
AcDb2dVertex
 10
47.59380131040108
 20
-110.1562606536133
 30
0.0
  0
VERTEX
  5
B4
330
A7
100
AcDbEntity
  8
assembly
 62
   250
420
  2301728
370
    35
100
AcDbVertex
100
AcDb2dVertex
 10
48.59380487053487
 20
-110.1562606536133
 30
0.0
  0
VERTEX
  5
B5
330
A7
100
AcDbEntity
  8
assembly
 62
   250
420
  2301728
370
    35
100
AcDbVertex
100
AcDb2dVertex
 10
48.59380487053487
 20
-107.1562499732109
 30
0.0
  0
VERTEX
  5
B6
330
A7
100
AcDbEntity
  8
assembly
 62
   250
420
  2301728
370
    35
100
AcDbVertex
100
AcDb2dVertex
 10
47.59380131040108
 20
-107.1562499732109
 30
0.0
  0
SEQEND
  5
B7
330
A7
100
AcDbEntity
  8
assembly
 62
   250
420
  2301728
370
    35
  0
INSERT
  5
B9
330
1F
100
AcDbEntity
  8
assembly
100
AcDbBlockReference
  2
block 5
 10
0.0
 20
0.0
 30
0.0
  0
INSERT
  5
DC
330
1F
100
AcDbEntity
  8
assembly
100
AcDbBlockReference
  2
block 7
 10
0.0
 20
0.0
 30
0.0
  0
INSERT
  5
E8
330
1F
100
AcDbEntity
  8
assembly
100
AcDbBlockReference
  2
block 8
 10
0.0
 20
0.0
 30
0.0
  0
INSERT
  5
10C
330
1F
100
AcDbEntity
  8
outer assembly
100
AcDbBlockReference
  2
block 10
 10
0.0
 20
0.0
 30
0.0
  0
POLYLINE
  5
145
330
1F
100
AcDbEntity
  8
outer assembly
 62
   250
420
  2301728
370
    35
100
AcDb2dPolyline
 66
     1
 10
0.0
 20
0.0
 30
0.0
  0
VERTEX
  5
146
330
145
100
AcDbEntity
  8
outer assembly
 62
   250
420
  2301728
370
    35
100
AcDbVertex
100
AcDb2dVertex
 10
86.25030782271286
 20
-88.67603079380304
 30
0.0
  0
VERTEX
  5
147
330
145
100
AcDbEntity
  8
outer assembly
 62
   250
420
  2301728
370
    35
100
AcDbVertex
100
AcDb2dVertex
 10
85.7502952767224
 20
-88.67603079380304
 30
0.0
  0
VERTEX
  5
148
330
145
100
AcDbEntity
  8
outer assembly
 62
   250
420
  2301728
370
    35
100
AcDbVertex
100
AcDb2dVertex
 10
85.7502952767224
 20
-91.67604147420538
 30
0.0
  0
VERTEX
  5
149
330
145
100
AcDbEntity
  8
outer assembly
 62
   250
420
  2301728
370
    35
100
AcDbVertex
100
AcDb2dVertex
 10
86.75029883685652
 20
-91.67604147420538
 30
0.0
  0
VERTEX
  5
14A
330
145
100
AcDbEntity
  8
outer assembly
 62
   250
420
  2301728
370
    35
100
AcDbVertex
100
AcDb2dVertex
 10
86.75029883685652
 20
-100.6760304517188
 30
0.0
  0
VERTEX
  5
14B
330
145
100
AcDbEntity
  8
outer assembly
 62
   250
420
  2301728
370
    35
100
AcDbVertex
100
AcDb2dVertex
 10
89.75030951725886
 20
-100.6760304517188
 30
0.0
  0
VERTEX
  5
14C
330
145
100
AcDbEntity
  8
outer assembly
 62
   250
420
  2301728
370
    35
100
AcDbVertex
100
AcDb2dVertex
 10
89.75030951725886
 20
-91.67604147420538
 30
0.0
  0
VERTEX
  5
14D
330
145
100
AcDbEntity
  8
outer assembly
 62
   250
420
  2301728
370
    35
100
AcDbVertex
100
AcDb2dVertex
 10
90.75031307739297
 20
-91.67604147420538
 30
0.0
  0
VERTEX
  5
14E
330
145
100
AcDbEntity
  8
outer assembly
 62
   250
420
  2301728
370
    35
100
AcDbVertex
100
AcDb2dVertex
 10
90.75031307739297
 20
-88.67603079380304
 30
0.0
  0
VERTEX
  5
14F
330
145
100
AcDbEntity
  8
outer assembly
 62
   250
420
  2301728
370
    35
100
AcDbVertex
100
AcDb2dVertex
 10
90.25030053140252
 20
-88.67603079380304
 30
0.0
  0
VERTEX
  5
150
330
145
100
AcDbEntity
  8
outer assembly
 62
   250
420
  2301728
370
    35
100
AcDbVertex
100
AcDb2dVertex
 10
90.25030053140252
 20
-85.67604164524748
 30
0.0
  0
VERTEX
  5
151
330
145
100
AcDbEntity
  8
outer assembly
 62
   250
420
  2301728
370
    35
100
AcDbVertex
100
AcDb2dVertex
 10
86.25030782271286
 20
-85.67604164524748
 30
0.0
  0
VERTEX
  5
152
330
145
100
AcDbEntity
  8
outer assembly
 62
   250
420
  2301728
370
    35
100
AcDbVertex
100
AcDb2dVertex
 10
86.25030782271286
 20
-88.67603079380304
 30
0.0
  0
SEQEND
  5
153
330
145
100
AcDbEntity
  8
outer assembly
 62
   250
420
  2301728
370
    35
  0
INSERT
  5
155
330
1F
100
AcDbEntity
  8
outer assembly
100
AcDbBlockReference
  2
block 14
 10
0.0
 20
0.0
 30
0.0
  0
INSERT
  5
161
330
1F
100
AcDbEntity
  8
outer assembly
100
AcDbBlockReference
  2
block 15
 10
0.0
 20
0.0
 30
0.0
  0
ENDSEC
  0
SECTION
  2
OBJECTS
  0
DICTIONARY
  5
C
330
0
100
AcDbDictionary
281
     1
  3
ACAD_GROUP
350
D
  3
ACAD_LAYOUT
350
1A
  3
ACAD_MATERIAL
350
3B
  3
ACAD_MLEADERSTYLE
350
1A1
  3
ACAD_MLINESTYLE
350
17
  3
ACAD_PLOTSETTINGS
350
19
  3
ACAD_PLOTSTYLENAME
350
E
  3
ACAD_TABLESTYLE
350
1A0
  3
ACAD_VISUALSTYLE
350
2A
  0
SUN
  5
3F
330
29
100
AcDbSun
 90
        1
290
     0
 63
     7
421
 16777215
 40
1.0
291
     1
 91
  2455826
 92
 54000000
292
     0
 70
     2
 71
   256
280
     1
  0
DICTIONARY
  5
D
102
{ACAD_REACTORS
330
C
102
}
330
C
100
AcDbDictionary
281
     1
  0
DICTIONARY
  5
1A
102
{ACAD_REACTORS
330
C
102
}
330
C
100
AcDbDictionary
281
     1
  3
Layout1
350
1E
  3
Layout2
350
26
  3
Model
350
22
  0
DICTIONARY
  5
3B
102
{ACAD_REACTORS
330
C
102
}
330
C
100
AcDbDictionary
281
     1
  3
ByBlock
350
3D
  3
ByLayer
350
3C
  3
Global
350
3E
  0
DICTIONARY
  5
1A1
102
{ACAD_REACTORS
330
C
102
}
330
C
100
AcDbDictionary
281
     1
  0
DICTIONARY
  5
17
102
{ACAD_REACTORS
330
C
102
}
330
C
100
AcDbDictionary
281
     1
  3
Standard
350
18
  0
DICTIONARY
  5
19
102
{ACAD_REACTORS
330
C
102
}
330
C
100
AcDbDictionary
281
     1
  0
ACDBDICTIONARYWDFLT
  5
E
102
{ACAD_REACTORS
330
C
102
}
330
C
100
AcDbDictionary
281
     1
  3
Normal
350
F
100
AcDbDictionaryWithDefault
340
F
  0
DICTIONARY
  5
1A0
102
{ACAD_REACTORS
330
C
102
}
330
C
100
AcDbDictionary
281
     1
  0
DICTIONARY
  5
2A
102
{ACAD_REACTORS
330
C
102
}
330
C
100
AcDbDictionary
281
     1
  3
2dWireframe
350
2F
  3
3D Hidden
350
31
  3
3dWireframe
350
30
  3
Basic
350
32
  3
Brighten
350
36
  3
ColorChange
350
3A
  3
Conceptual
350
34
  3
Dim
350
35
  3
Facepattern
350
39
  3
Flat
350
2B
  3
FlatWithEdges
350
2C
  3
Gouraud
350
2D
  3
GouraudWithEdges
350
2E
  3
Linepattern
350
38
  3
Realistic
350
33
  3
Thicken
350
37
  0
LAYOUT
  5
1E
102
{ACAD_REACTORS
330
1A
102
}
330
1A
100
AcDbPlotSettings
  1

  2
none_device
  4

  6

 40
0.0
 41
0.0
 42
0.0
 43
0.0
 44
0.0
 45
0.0
 46
0.0
 47
0.0
 48
0.0
 49
0.0
140
0.0
141
0.0
142
1.0
143
1.0
 70
   688
 72
     0
 73
     0
 74
     5
  7

 75
    16
 76
     0
 77
     2
 78
   300
147
1.0
148
0.0
149
0.0
100
AcDbLayout
  1
Layout1
 70
     1
 71
     1
 10
0.0
 20
0.0
 11
12.0
 21
9.0
 12
0.0
 22
0.0
 32
0.0
 14
1.000000000000000E+20
 24
1.000000000000000E+20
 34
1.000000000000000E+20
 15
-1.000000000000000E+20
 25
-1.000000000000000E+20
 35
-1.000000000000000E+20
146
0.0
 13
0.0
 23
0.0
 33
0.0
 16
1.0
 26
0.0
 36
0.0
 17
0.0
 27
1.0
 37
0.0
 76
     0
330
1B
  0
LAYOUT
  5
26
102
{ACAD_REACTORS
330
1A
102
}
330
1A
100
AcDbPlotSettings
  1

  2
none_device
  4

  6

 40
0.0
 41
0.0
 42
0.0
 43
0.0
 44
0.0
 45
0.0
 46
0.0
 47
0.0
 48
0.0
 49
0.0
140
0.0
141
0.0
142
1.0
143
1.0
 70
   688
 72
     0
 73
     0
 74
     5
  7

 75
    16
 76
     0
 77
     2
 78
   300
147
1.0
148
0.0
149
0.0
100
AcDbLayout
  1
Layout2
 70
     1
 71
     2
 10
0.0
 20
0.0
 11
0.0
 21
0.0
 12
0.0
 22
0.0
 32
0.0
 14
0.0
 24
0.0
 34
0.0
 15
0.0
 25
0.0
 35
0.0
146
0.0
 13
0.0
 23
0.0
 33
0.0
 16
1.0
 26
0.0
 36
0.0
 17
0.0
 27
1.0
 37
0.0
 76
     0
330
23
  0
LAYOUT
  5
22
102
{ACAD_REACTORS
330
1A
102
}
330
1A
100
AcDbPlotSettings
  1

  2
none_device
  4

  6

 40
0.0
 41
0.0
 42
0.0
 43
0.0
 44
0.0
 45
0.0
 46
0.0
 47
0.0
 48
0.0
 49
0.0
140
0.0
141
0.0
142
1.0
143
1.0
 70
  1712
 72
     0
 73
     0
 74
     0
  7

 75
     0
 76
     0
 77
     2
 78
   300
147
1.0
148
0.0
149
0.0
100
AcDbLayout
  1
Model
 70
     1
 71
     0
 10
0.0
 20
0.0
 11
12.0
 21
9.0
 12
0.0
 22
0.0
 32
0.0
 14
1.000000000000000E+20
 24
1.000000000000000E+20
 34
1.000000000000000E+20
 15
-1.000000000000000E+20
 25
-1.000000000000000E+20
 35
-1.000000000000000E+20
146
0.0
 13
0.0
 23
0.0
 33
0.0
 16
1.0
 26
0.0
 36
0.0
 17
0.0
 27
1.0
 37
0.0
 76
     0
330
1F
331
29
  0
MATERIAL
  5
3D
102
{ACAD_REACTORS
330
3B
102
}
330
3B
100
AcDbMaterial
  1
ByBlock
 72
     1
 94
      127
  0
MATERIAL
  5
3C
102
{ACAD_REACTORS
330
3B
102
}
330
3B
100
AcDbMaterial
  1
ByLayer
 72
     1
 94
      127
  0
MATERIAL
  5
3E
102
{ACAD_REACTORS
330
3B
102
}
330
3B
100
AcDbMaterial
  1
Global
 72
     1
 94
      127
  0
MLINESTYLE
  5
18
102
{ACAD_REACTORS
330
17
102
}
330
17
100
AcDbMlineStyle
  2
Standard
 70
     0
  3

 62
   256
 51
90.0
 52
90.0
 71
     2
 49
0.5
 62
   256
  6
BYLAYER
 49
-0.5
 62
   256
  6
BYLAYER
  0
ACDBPLACEHOLDER
  5
F
102
{ACAD_REACTORS
330
E
102
}
330
E
  0
VISUALSTYLE
  5
2F
102
{ACAD_REACTORS
330
2A
102
}
330
2A
100
AcDbVisualStyle
  2
2dWireframe
 70
     4
177
     2
291
     0
 71
     0
176
     1
 72
     2
176
     1
 73
     0
176
     1
 90
        0
176
     1
 40
-0.6
176
     1
 41
-30.0
176
     1
 62
     5
 63
     7
421
 16777215
176
     1
 74
     1
176
     1
 91
        4
176
     1
 64
     7
176
     1
 65
   257
176
     1
 75
     1
176
     1
175
     1
176
     1
 42
1.0
176
     1
 92
        0
176
     1
 66
   257
176
     1
 43
1.0
176
     1
 76
     1
176
     1
 77
     6
176
     1
 78
     2
176
     1
 67
     7
176
     1
 79
     5
176
     1
170
     0
176
     1
171
     0
176
     1
290
     0
176
     1
 93
        1
176
     1
 44
0.0
176
     1
173
     0
176
     1
  0
VISUALSTYLE
  5
31
102
{ACAD_REACTORS
330
2A
102
}
330
2A
100
AcDbVisualStyle
  2
3D Hidden
 70
     6
177
     2
291
     0
 71
     1
176
     1
 72
     2
176
     1
 73
     2
176
     1
 90
        0
176
     1
 40
-0.6
176
     1
 41
-30.0
176
     1
 62
     5
 63
     7
421
 16777215
176
     1
 74
     2
176
     1
 91
        2
176
     1
 64
     7
176
     1
 65
   257
176
     1
 75
     2
176
     1
175
     1
176
     1
 42
40.0
176
     1
 92
        0
176
     1
 66
   257
176
     1
 43
1.0
176
     1
 76
     1
176
     1
 77
     6
176
     1
 78
     2
176
     1
 67
     7
176
     1
 79
     3
176
     1
170
     0
176
     1
171
     0
176
     1
290
     0
176
     1
 93
        1
176
     1
 44
0.0
176
     1
173
     0
176
     1
  0
VISUALSTYLE
  5
30
102
{ACAD_REACTORS
330
2A
102
}
330
2A
100
AcDbVisualStyle
  2
3dWireframe
 70
     5
177
     2
291
     0
 71
     0
176
     1
 72
     2
176
     1
 73
     0
176
     1
 90
        0
176
     1
 40
-0.6
176
     1
 41
-30.0
176
     1
 62
     5
 63
     7
421
 16777215
176
     1
 74
     1
176
     1
 91
        4
176
     1
 64
     7
176
     1
 65
   257
176
     1
 75
     1
176
     1
175
     1
176
     1
 42
1.0
176
     1
 92
        0
176
     1
 66
   257
176
     1
 43
1.0
176
     1
 76
     1
176
     1
 77
     6
176
     1
 78
     2
176
     1
 67
     7
176
     1
 79
     5
176
     1
170
     0
176
     1
171
     0
176
     1
290
     0
176
     1
 93
        1
176
     1
 44
0.0
176
     1
173
     0
176
     1
  0
VISUALSTYLE
  5
32
102
{ACAD_REACTORS
330
2A
102
}
330
2A
100
AcDbVisualStyle
  2
Basic
 70
     7
177
     2
291
     1
 71
     1
176
     1
 72
     0
176
     1
 73
     1
176
     1
 90
        0
176
     1
 40
-0.6
176
     1
 41
-30.0
176
     1
 62
     5
 63
     7
421
 16777215
176
     1
 74
     0
176
     1
 91
        4
176
     1
 64
     7
176
     1
 65
   257
176
     1
 75
     1
176
     1
175
     1
176
     1
 42
1.0
176
     1
 92
        8
176
     1
 66
     7
176
     1
 43
1.0
176
     1
 76
     1
176
     1
 77
     6
176
     1
 78
     2
176
     1
 67
     7
176
     1
 79
     5
176
     1
170
     0
176
     1
171
     0
176
     1
290
     0
176
     1
 93
        1
176
     1
 44
0.0
176
     1
173
     0
176
     1
  0
VISUALSTYLE
  5
36
102
{ACAD_REACTORS
330
2A
102
}
330
2A
100
AcDbVisualStyle
  2
Brighten
 70
    12
177
     2
291
     1
 71
     2
176
     1
 72
     2
176
     1
 73
     0
176
     1
 90
        0
176
     1
 40
-0.6
176
     1
 41
-30.0
176
     1
 62
     5
 63
     7
421
 16777215
176
     1
 74
     1
176
     1
 91
        4
176
     1
 64
     7
176
     1
 65
   257
176
     1
 75
     1
176
     1
175
     1
176
     1
 42
1.0
176
     1
 92
        8
176
     1
 66
     7
176
     1
 43
1.0
176
     1
 76
     1
176
     1
 77
     6
176
     1
 78
     2
176
     1
 67
     7
176
     1
 79
     5
176
     1
170
     0
176
     1
171
     0
176
     1
290
     0
176
     1
 93
        1
176
     1
 44
50.0
176
     1
173
     0
176
     1
  0
VISUALSTYLE
  5
3A
102
{ACAD_REACTORS
330
2A
102
}
330
2A
100
AcDbVisualStyle
  2
ColorChange
 70
    16
177
     2
291
     1
 71
     2
176
     1
 72
     2
176
     1
 73
     3
176
     1
 90
        0
176
     1
 40
-0.6
176
     1
 41
-30.0
176
     1
 62
     5
 63
     8
421
  8421504
176
     1
 74
     1
176
     1
 91
        4
176
     1
 64
     7
176
     1
 65
   257
176
     1
 75
     1
176
     1
175
     1
176
     1
 42
1.0
176
     1
 92
        8
176
     1
 66
     8
424
  8421504
176
     1
 43
1.0
176
     1
 76
     1
176
     1
 77
     6
176
     1
 78
     2
176
     1
 67
     7
176
     1
 79
     5
176
     1
170
     0
176
     1
171
     0
176
     1
290
     0
176
     1
 93
        1
176
     1
 44
0.0
176
     1
173
     0
176
     1
  0
VISUALSTYLE
  5
34
102
{ACAD_REACTORS
330
2A
102
}
330
2A
100
AcDbVisualStyle
  2
Conceptual
 70
     9
177
     2
291
     0
 71
     3
176
     1
 72
     2
176
     1
 73
     0
176
     1
 90
        0
176
     1
 40
-0.6
176
     1
 41
-30.0
176
     1
 62
     5
 63
     7
421
 16777215
176
     1
 74
     2
176
     1
 91
        2
176
     1
 64
     7
176
     1
 65
   257
176
     1
 75
     1
176
     1
175
     1
176
     1
 42
40.0
176
     1
 92
        8
176
     1
 66
     7
176
     1
 43
1.0
176
     1
 76
     1
176
     1
 77
     6
176
     1
 78
     2
176
     1
 67
     7
176
     1
 79
     3
176
     1
170
     0
176
     1
171
     0
176
     1
290
     0
176
     1
 93
        1
176
     1
 44
0.0
176
     1
173
     0
176
     1
  0
VISUALSTYLE
  5
35
102
{ACAD_REACTORS
330
2A
102
}
330
2A
100
AcDbVisualStyle
  2
Dim
 70
    11
177
     2
291
     1
 71
     2
176
     1
 72
     2
176
     1
 73
     0
176
     1
 90
        0
176
     1
 40
-0.6
176
     1
 41
-30.0
176
     1
 62
     5
 63
     7
421
 16777215
176
     1
 74
     1
176
     1
 91
        4
176
     1
 64
     7
176
     1
 65
   257
176
     1
 75
     1
176
     1
175
     1
176
     1
 42
1.0
176
     1
 92
        8
176
     1
 66
     7
176
     1
 43
1.0
176
     1
 76
     1
176
     1
 77
     6
176
     1
 78
     2
176
     1
 67
     7
176
     1
 79
     5
176
     1
170
     0
176
     1
171
     0
176
     1
290
     0
176
     1
 93
        1
176
     1
 44
-50.0
176
     1
173
     0
176
     1
  0
VISUALSTYLE
  5
39
102
{ACAD_REACTORS
330
2A
102
}
330
2A
100
AcDbVisualStyle
  2
Facepattern
 70
    15
177
     2
291
     1
 71
     2
176
     1
 72
     2
176
     1
 73
     0
176
     1
 90
        0
176
     1
 40
-0.6
176
     1
 41
-30.0
176
     1
 62
     5
 63
     7
421
 16777215
176
     1
 74
     1
176
     1
 91
        4
176
     1
 64
     7
176
     1
 65
   257
176
     1
 75
     1
176
     1
175
     1
176
     1
 42
1.0
176
     1
 92
        8
176
     1
 66
     7
176
     1
 43
1.0
176
     1
 76
     1
176
     1
 77
     6
176
     1
 78
     2
176
     1
 67
     7
176
     1
 79
     5
176
     1
170
     0
176
     1
171
     0
176
     1
290
     0
176
     1
 93
        1
176
     1
 44
0.0
176
     1
173
     0
176
     1
  0
VISUALSTYLE
  5
2B
102
{ACAD_REACTORS
330
2A
102
}
330
2A
100
AcDbVisualStyle
  2
Flat
 70
     0
177
     2
291
     1
 71
     2
176
     1
 72
     1
176
     1
 73
     1
176
     1
 90
        2
176
     1
 40
-0.6
176
     1
 41
30.0
176
     1
 62
     5
 63
     7
421
 16777215
176
     1
 74
     0
176
     1
 91
        4
176
     1
 64
     7
176
     1
 65
   257
176
     1
 75
     1
176
     1
175
     1
176
     1
 42
1.0
176
     1
 92
        8
176
     1
 66
     7
176
     1
 43
1.0
176
     1
 76
     1
176
     1
 77
     6
176
     1
 78
     2
176
     1
 67
     7
176
     1
 79
     5
176
     1
170
     0
176
     1
171
     0
176
     1
290
     0
176
     1
 93
       13
176
     1
 44
0.0
176
     1
173
     0
176
     1
  0
VISUALSTYLE
  5
2C
102
{ACAD_REACTORS
330
2A
102
}
330
2A
100
AcDbVisualStyle
  2
FlatWithEdges
 70
     1
177
     2
291
     1
 71
     2
176
     1
 72
     1
176
     1
 73
     1
176
     1
 90
        2
176
     1
 40
-0.6
176
     1
 41
30.0
176
     1
 62
     5
 63
     7
421
 16777215
176
     1
 74
     1
176
     1
 91
        4
176
     1
 64
     7
176
     1
 65
   257
176
     1
 75
     1
176
     1
175
     1
176
     1
 42
1.0
176
     1
 92
        0
176
     1
 66
   257
176
     1
 43
1.0
176
     1
 76
     1
176
     1
 77
     6
176
     1
 78
     2
176
     1
 67
     7
176
     1
 79
     5
176
     1
170
     0
176
     1
171
     0
176
     1
290
     0
176
     1
 93
       13
176
     1
 44
0.0
176
     1
173
     0
176
     1
  0
VISUALSTYLE
  5
2D
102
{ACAD_REACTORS
330
2A
102
}
330
2A
100
AcDbVisualStyle
  2
Gouraud
 70
     2
177
     2
291
     1
 71
     2
176
     1
 72
     2
176
     1
 73
     1
176
     1
 90
        2
176
     1
 40
-0.6
176
     1
 41
30.0
176
     1
 62
     5
 63
     7
421
 16777215
176
     1
 74
     0
176
     1
 91
        4
176
     1
 64
     7
176
     1
 65
   257
176
     1
 75
     1
176
     1
175
     1
176
     1
 42
1.0
176
     1
 92
        0
176
     1
 66
     7
176
     1
 43
1.0
176
     1
 76
     1
176
     1
 77
     6
176
     1
 78
     2
176
     1
 67
     7
176
     1
 79
     5
176
     1
170
     0
176
     1
171
     0
176
     1
290
     0
176
     1
 93
       13
176
     1
 44
0.0
176
     1
173
     0
176
     1
  0
VISUALSTYLE
  5
2E
102
{ACAD_REACTORS
330
2A
102
}
330
2A
100
AcDbVisualStyle
  2
GouraudWithEdges
 70
     3
177
     2
291
     1
 71
     2
176
     1
 72
     2
176
     1
 73
     1
176
     1
 90
        2
176
     1
 40
-0.6
176
     1
 41
30.0
176
     1
 62
     5
 63
     7
421
 16777215
176
     1
 74
     1
176
     1
 91
        4
176
     1
 64
     7
176
     1
 65
   257
176
     1
 75
     1
176
     1
175
     1
176
     1
 42
1.0
176
     1
 92
        0
176
     1
 66
   257
176
     1
 43
1.0
176
     1
 76
     1
176
     1
 77
     6
176
     1
 78
     2
176
     1
 67
     7
176
     1
 79
     5
176
     1
170
     0
176
     1
171
     0
176
     1
290
     0
176
     1
 93
       13
176
     1
 44
0.0
176
     1
173
     0
176
     1
  0
VISUALSTYLE
  5
38
102
{ACAD_REACTORS
330
2A
102
}
330
2A
100
AcDbVisualStyle
  2
Linepattern
 70
    14
177
     2
291
     1
 71
     2
176
     1
 72
     2
176
     1
 73
     0
176
     1
 90
        0
176
     1
 40
-0.6
176
     1
 41
-30.0
176
     1
 62
     5
 63
     7
421
 16777215
176
     1
 74
     1
176
     1
 91
        4
176
     1
 64
     7
176
     1
 65
   257
176
     1
 75
     7
176
     1
175
     7
176
     1
 42
1.0
176
     1
 92
        8
176
     1
 66
     7
176
     1
 43
1.0
176
     1
 76
     1
176
     1
 77
     6
176
     1
 78
     2
176
     1
 67
     7
176
     1
 79
     5
176
     1
170
     0
176
     1
171
     0
176
     1
290
     0
176
     1
 93
        1
176
     1
 44
0.0
176
     1
173
     0
176
     1
  0
VISUALSTYLE
  5
33
102
{ACAD_REACTORS
330
2A
102
}
330
2A
100
AcDbVisualStyle
  2
Realistic
 70
     8
177
     2
291
     0
 71
     2
176
     1
 72
     2
176
     1
 73
     0
176
     1
 90
        0
176
     1
 40
-0.6
176
     1
 41
-30.0
176
     1
 62
     5
 63
     7
421
 16777215
176
     1
 74
     1
176
     1
 91
        0
176
     1
 64
     7
176
     1
 65
   257
176
     1
 75
     1
176
     1
175
     1
176
     1
 42
1.0
176
     1
 92
        8
176
     1
 66
     8
424
  7895160
176
     1
 43
1.0
176
     1
 76
     1
176
     1
 77
     6
176
     1
 78
     2
176
     1
 67
     7
176
     1
 79
     5
176
     1
170
     0
176
     1
171
     0
176
     1
290
     0
176
     1
 93
       13
176
     1
 44
0.0
176
     1
173
     0
176
     1
  0
VISUALSTYLE
  5
37
102
{ACAD_REACTORS
330
2A
102
}
330
2A
100
AcDbVisualStyle
  2
Thicken
 70
    13
177
     2
291
     1
 71
     2
176
     1
 72
     2
176
     1
 73
     0
176
     1
 90
        0
176
     1
 40
-0.6
176
     1
 41
-30.0
176
     1
 62
     5
 63
     7
421
 16777215
176
     1
 74
     1
176
     1
 91
        4
176
     1
 64
     7
176
     1
 65
   257
176
     1
 75
     1
176
     1
175
     1
176
     1
 42
1.0
176
     1
 92
       12
176
     1
 66
     7
176
     1
 43
1.0
176
     1
 76
     1
176
     1
 77
     6
176
     1
 78
     2
176
     1
 67
     7
176
     1
 79
     5
176
     1
170
     0
176
     1
171
     0
176
     1
290
     0
176
     1
 93
        1
176
     1
 44
0.0
176
     1
173
     0
176
     1
  0
ENDSEC
  0
EOF
